<svg width="30" height="30" viewBox="0 0 30 30" fill="none" xmlns="http://www.w3.org/2000/svg">
<g clip-path="url(#clip0_13_26)">
<path d="M24.466 17.0868C19.8707 17.266 15.5201 18.4609 11.6437 20.4412L6.6592 23.3195C5.34097 24.0795 3.65749 23.6233 2.90096 22.3119L0.367763 17.9256C-0.390385 16.6118 0.0615036 14.9255 1.37529 14.1673L5.50498 11.7827C5.74411 11.6446 6.04993 11.7265 6.18806 11.9657L9.43303 17.5862C9.57353 17.8295 9.88767 17.9102 10.1288 17.7616C10.362 17.6179 10.4257 17.3055 10.2887 17.0682L7.02027 11.4071C6.89046 11.1822 6.95421 10.8952 7.16765 10.7472C10.5769 8.38352 13.4613 5.373 15.6763 1.86196C16.5155 0.530729 18.4709 0.566355 19.2596 1.93196L26.1967 13.9486C26.9851 15.3112 26.0411 17.0255 24.466 17.0868ZM25.3561 8.71766C25.6129 7.24774 24.7514 5.77344 23.3589 5.2688C22.9212 5.11018 22.5242 5.5865 22.7569 5.9897C23.3109 6.94954 23.8669 7.91269 24.4291 8.8861C24.664 9.29267 25.2753 9.18023 25.3561 8.71766ZM13.8138 26.4102L11.441 22.2911C11.3031 22.0517 10.9969 21.9697 10.7576 22.1077C9.47159 22.8497 9.42297 22.8785 7.7076 23.8687C7.46841 24.0067 7.38616 24.3127 7.52429 24.5519L9.90117 28.6684C10.2059 29.1955 10.7538 29.4821 11.3118 29.4821C11.8531 29.4821 12.0601 29.299 13.2188 28.6302C13.995 28.1821 14.2619 27.1858 13.8138 26.4102ZM29.007 4.91579C29.2461 4.77773 29.3281 4.47191 29.19 4.23277C29.052 3.99371 28.7463 3.91164 28.507 4.04977L27.2132 4.79673C26.7705 5.05236 26.9557 5.72988 27.4638 5.72988C27.6416 5.72982 27.6059 5.72469 29.007 4.91579ZM24.4092 2.32478L24.7247 1.1475C24.7962 0.880739 24.6379 0.606606 24.3712 0.535104C24.1043 0.463727 23.8303 0.621919 23.7588 0.888677L23.4433 2.06596C23.3583 2.38297 23.5972 2.69554 23.9265 2.69554C24.1473 2.69548 24.3493 2.54816 24.4092 2.32478ZM29.9829 10.2548C30.0544 9.98807 29.896 9.71387 29.6293 9.64243L28.452 9.32699C28.1853 9.25567 27.9111 9.41386 27.8396 9.68056C27.7681 9.94725 27.9265 10.2214 28.1931 10.293C29.4807 10.638 29.4101 10.6256 29.5002 10.6256C29.7209 10.6256 29.923 10.4782 29.9829 10.2548Z" fill="white"/>
</g>
<defs>
<clipPath id="clip0_13_26">
<rect width="30" height="30" fill="white"/>
</clipPath>
</defs>
</svg>
