<svg width="300" height="199" viewBox="0 0 300 199" fill="none" xmlns="http://www.w3.org/2000/svg">
<path d="M28.8909 196.779C44.8469 196.779 57.7818 195.263 57.7818 193.392C57.7818 191.522 44.8469 190.006 28.8909 190.006C12.9349 190.006 0 191.522 0 193.392C0 195.263 12.9349 196.779 28.8909 196.779Z" fill="#E6E6E6"/>
<path d="M256.66 191.979C256.66 195.403 222.202 198.178 179.092 198.178C135.981 198.178 101.029 195.403 101.029 191.979C101.029 188.555 135.977 185.776 179.092 185.776C222.207 185.776 256.66 188.565 256.66 191.979Z" fill="#E6E6E6"/>
<path d="M266.815 64.2874C268.388 68.4605 270.371 73.6744 267.931 77.8945C265.397 82.2889 259.411 84.2624 255.393 86.9753C255.336 87.013 255.181 87.0978 255.12 87.1496C252.501 76.8567 249.504 66.6628 246.128 56.5678C249.896 56.2193 253.707 55.7012 257.517 55.6494C259.401 55.6211 261.045 55.541 262.467 56.8645C264.62 58.8663 265.797 61.5886 266.815 64.2874Z" fill="white"/>
<path d="M254.022 82.9295C254.393 84.3331 254.759 85.746 255.12 87.1685C255.181 87.1166 255.337 87.0319 255.393 86.9942C259.411 84.2813 265.397 82.3078 267.931 77.9134C269.999 74.3385 268.873 70.0524 267.549 66.2892C266.494 74.9649 259.613 80.1271 254.022 82.9295Z" fill="#E6E6E6"/>
<path d="M141.831 181.683C138.063 183.939 134.347 186.544 130.438 188.527C128.2 189.662 125.186 190.821 122.963 188.998C121.715 187.98 120.792 186.393 119.887 185.089C115.455 178.674 112.328 171.646 108.908 164.643C104.863 156.362 101.796 147.842 99.1069 139.044C108.445 137.414 117.724 135.474 126.943 133.222C130.489 142.445 134.479 151.398 140.037 159.598C141.346 161.529 142.698 163.437 144.115 165.288C145.731 167.388 148.232 169.329 149.164 171.882C150.945 176.7 145.199 179.677 141.831 181.683Z" fill="white"/>
<path d="M252.242 146.175C251.545 145.991 250.867 145.803 250.212 145.633C242.577 143.693 234.99 141.564 227.416 139.383C214.925 135.789 202.453 132.031 189.595 129.859C175.465 127.476 161.194 127.241 146.96 128.536C143.433 128.856 139.896 129.275 136.405 129.746C131.078 111.849 125.912 93.866 121.428 75.7185C147.516 64.132 169.21 44.0157 188.931 23.8147C192.482 20.1739 195.996 16.486 199.524 12.8404C201.694 10.5263 204.005 8.34772 206.443 6.31714C207.347 5.58239 208.327 4.8288 209.363 4.12701C213.602 10.721 216.399 18.4406 219.296 25.6892C223.229 35.4907 226.879 45.4287 230.379 55.395C232.734 62.0172 235.117 68.6582 237.081 75.4029C240.237 86.2594 242.827 97.3089 245.305 108.34C248.121 120.802 250.994 133.458 252.242 146.175Z" fill="white"/>
<path d="M288.099 67.0898C291.867 67.4337 295.635 67.6315 299.403 68.0931C300.194 68.192 300.204 69.4448 299.403 69.3459C295.635 68.8749 291.867 68.6865 288.099 68.3427C287.303 68.2673 287.299 67.0145 288.099 67.0898Z" fill="#333333"/>
<path d="M281.02 46.1917L289.465 37.9728C290.044 37.4124 290.93 38.2978 290.35 38.8583L281.905 47.0772C281.326 47.6424 280.441 46.7569 281.02 46.1917Z" fill="#333333"/>
<path d="M278.091 89.806C281.325 92.4954 284.403 95.3685 287.308 98.4111C287.868 98.9904 286.983 99.8759 286.422 99.2966C283.517 96.254 280.44 93.3809 277.205 90.6915C276.583 90.1781 277.478 89.2973 278.091 89.806Z" fill="#333333"/>
<path d="M262.062 22.9292C261.733 27.7475 261.502 32.5705 261.167 37.3841C261.116 38.1895 259.863 38.1895 259.919 37.3841C260.249 32.5705 260.48 27.7475 260.81 22.9292C260.861 22.1285 262.114 22.1238 262.062 22.9292Z" fill="#333333"/>
<path d="M104.665 104.426C105.376 104.063 107.02 103.253 105.362 102.042C104.891 101.703 102.95 102.254 102.305 102.419C100.892 102.787 99.4792 103.309 98.0662 103.79C95.7913 104.539 93.1349 104.967 91.0012 106.088C89.3763 106.941 88.9242 108.387 91.0342 108.566C91.6418 108.618 92.4472 108.283 93.0313 108.147C94.3595 107.833 95.6735 107.479 96.9735 107.087C99.5122 106.314 102.324 105.627 104.665 104.426ZM97.7459 102.584C99.2343 102.071 108.381 98.5147 107.444 103.178C107.133 104.713 105.56 105.462 104.241 106.004C101.886 106.946 99.4274 107.685 97.0159 108.41C95.0707 108.999 87.9539 111.882 88.3119 107.468C88.4343 105.985 89.4234 105.434 90.6904 104.906C92.9747 103.936 95.4051 103.357 97.7459 102.584Z" fill="#333333"/>
<path d="M103.327 93.0653C103.13 92.8534 102.385 92.8345 102.136 92.8157C99.5547 92.6037 96.4838 94.0732 94.0911 94.8692C92.2071 95.4062 89.042 95.9667 87.6526 97.4738C87.5077 97.6015 87.4005 97.7664 87.3426 97.9506C87.2846 98.1347 87.278 98.3313 87.3236 98.5189C87.3692 98.7065 87.4652 98.8781 87.6012 99.0152C87.7372 99.1523 87.908 99.2496 88.0953 99.2966C88.4652 99.2903 88.8314 99.2219 89.1786 99.0941C91.8162 98.5666 94.4349 97.8977 97.0066 97.1253C98.4597 96.7153 99.8863 96.2166 101.279 95.6322C101.755 95.4683 102.206 95.2401 102.621 94.954C102.965 94.6573 103.888 93.6588 103.327 93.0653ZM93.7567 93.6635C96.1352 92.8769 102.555 89.7966 104.754 92.5142C107.255 95.6087 98.8811 97.8695 97.341 98.3311C95.2074 98.9716 93.0408 99.5274 90.8648 100.013C89.8804 100.234 88.6228 100.7 87.5678 100.554C85.6838 100.286 85.2929 98.1992 86.4139 96.9134C88.0765 94.9964 91.4865 94.3087 93.7567 93.6635Z" fill="#333333"/>
<path d="M134.488 130.024C134.541 130.018 134.595 130.018 134.648 130.024L135.148 129.958C129.844 112.117 124.701 94.2334 120.236 76.1659C109.29 78.7658 98.3863 81.5353 87.5251 84.4743C83.5546 85.5576 77.978 86.217 75.0249 89.3633C71.9869 92.5943 73.0043 98.6231 73.4564 102.645C74.4798 111.513 77.3691 120.064 81.9344 127.735C84.0256 131.244 86.4701 135.187 89.5504 137.918C91.7028 139.831 95.6357 138.361 98.1791 137.918C100.569 137.504 102.953 137.071 105.333 136.618C115.067 134.769 124.732 132.571 134.328 130.024C134.381 130.016 134.435 130.016 134.488 130.024ZM141.831 181.683C145.18 179.677 150.926 176.7 149.146 171.868C148.204 169.334 145.712 167.393 144.096 165.274C142.684 163.423 141.327 161.506 140.018 159.584C134.46 151.379 130.471 142.426 126.924 133.208C117.711 135.453 108.433 137.394 99.0881 139.03C101.777 147.828 104.844 156.348 108.89 164.629C112.309 171.632 115.422 178.664 119.887 185.084C120.792 186.389 121.715 187.976 122.963 188.993C125.186 190.806 128.2 189.648 130.438 188.522C134.366 186.544 138.063 183.939 141.831 181.683ZM250.193 145.652C250.848 145.822 251.526 146.01 252.223 146.194C250.975 133.453 248.102 120.802 245.304 108.34C242.827 97.309 240.236 86.2594 237.081 75.4029C235.135 68.6583 232.733 62.0172 230.378 55.395C226.86 45.4287 223.21 35.5001 219.282 25.6893C216.385 18.4406 213.587 10.7304 209.348 4.12705C208.312 4.82883 207.332 5.58242 206.428 6.31718C203.99 8.34776 201.68 10.5263 199.509 12.8405C195.967 16.486 192.468 20.1739 188.917 23.8147C169.191 44.0157 147.497 64.132 121.409 75.7374C125.892 93.8848 131.059 111.849 136.386 129.765C139.895 129.294 143.414 128.875 146.941 128.555C161.175 127.26 175.47 127.495 189.576 129.878C202.415 132.05 214.906 135.808 227.397 139.402C234.989 141.583 242.577 143.712 250.212 145.652H250.193ZM255.374 86.9753C259.392 84.2624 265.378 82.2889 267.912 77.8945C270.352 73.6555 268.383 68.4746 266.796 64.2874C265.778 61.5886 264.601 58.8663 262.448 56.8645C261.035 55.541 259.359 55.6211 257.498 55.6493C253.688 55.7012 249.901 56.2193 246.11 56.5678C249.476 66.6534 252.473 76.8473 255.101 87.1496C255.181 87.0978 255.341 87.013 255.393 86.9753H255.374ZM269.226 78.1159C266.678 83.0237 260.334 85.1384 256.005 88.0586C255.822 88.2019 255.626 88.3295 255.421 88.4401C257.126 95.2256 258.659 102.039 260.018 108.881C261.483 116.271 262.576 123.699 263.555 131.169C264.163 135.841 265.157 142.595 261.262 146.241C259.816 147.602 257.847 148.097 255.897 148.04C252.341 147.946 248.7 146.57 245.29 145.685C237.716 143.693 230.19 141.521 222.682 139.35C209.584 135.582 196.415 131.847 182.85 130.152C166.864 128.15 150.738 129.012 134.808 131.24C132.59 131.824 130.372 132.384 128.149 132.935C132.68 144.71 138.091 156.57 146.437 166.183C149.037 169.178 152.334 172.683 149.871 176.874C147.893 180.233 143.277 182.329 140.032 184.194C135.896 186.549 131.733 190.368 126.905 191.117C123.071 191.706 121.178 189.092 119.214 186.318C114.306 179.394 110.919 171.717 107.236 164.096C103.355 156.089 100.445 147.776 97.8493 139.27L97.7128 139.294C95.6404 139.647 93.0405 140.504 90.921 140.071C89.1877 139.718 88.062 138.248 86.9788 136.972C83.9592 133.403 81.3463 129.509 79.1885 125.362C74.9401 117.26 72.4629 108.348 71.921 99.2165C71.6949 95.2507 71.4783 90.715 74.7847 87.9126C78.091 85.1102 83.1637 84.4037 87.2001 83.3063C98.2591 80.2919 109.364 77.4581 120.514 74.8048C124.002 73.263 127.417 71.5659 130.758 69.7133C155.82 55.8189 176.308 35.2034 196 14.7245C200.268 10.283 204.511 5.60126 209.843 2.41262C214.27 -0.234381 219.852 -1.60027 223.351 3.13325C228.089 9.5388 231.132 17.5316 234.184 24.7991C238.385 34.8093 242.233 44.9954 245.728 55.3573C250.316 54.9476 254.997 54.1045 259.604 54.4436C264.408 54.7921 266.532 59.9919 268.03 63.9577C269.669 68.305 271.562 73.6414 269.245 78.1159H269.226ZM262.632 140.433C263.15 137.165 262.632 133.872 262.241 130.623C261.77 126.751 261.243 122.884 260.607 119.036C259.396 111.656 257.894 104.322 256.189 97.0405C249.986 70.5328 241.56 44.1429 230.43 19.2743C228.744 15.5063 226.982 11.7383 224.985 8.14936C223.163 4.85238 221.119 0.811233 216.719 1.14564C214.51 1.3152 212.377 2.24777 210.413 3.44881C215.325 11.0742 218.457 20.108 221.754 28.5058C225.612 38.3355 229.234 48.2594 232.71 58.2304C234.985 64.7537 237.278 71.2864 239.106 77.951C242.346 89.773 245.186 101.713 247.777 113.69C250.132 124.523 252.459 135.46 253.523 146.5C255.435 146.905 257.404 147.056 259.175 146.198C261.375 145.129 262.279 142.708 262.637 140.433H262.632Z" fill="#333333"/>
<path d="M103.327 93.0653C103.888 93.6588 102.964 94.6573 102.621 94.9493C102.206 95.2354 101.755 95.4636 101.278 95.6275C99.8861 96.2119 98.4595 96.7106 97.0064 97.1206C94.4347 97.893 91.8254 98.5618 89.1784 99.0894C88.8312 99.2172 88.465 99.2856 88.0951 99.2919C87.9078 99.2449 87.737 99.1476 87.601 99.0105C87.4649 98.8734 87.369 98.7018 87.3234 98.5142C87.2778 98.3265 87.2844 98.13 87.3424 97.9458C87.4003 97.7617 87.5075 97.5968 87.6524 97.4691C89.0418 95.9619 92.1975 95.4015 94.0909 94.8645C96.5071 94.0685 99.5545 92.599 102.136 92.811C102.395 92.8345 103.129 92.8534 103.327 93.0653Z" fill="#31A05F"/>
<path d="M105.362 102.042C107.034 103.253 105.362 104.063 104.665 104.426C102.31 105.627 99.5121 106.31 96.997 107.087C95.697 107.489 94.383 107.842 93.0547 108.147C92.4519 108.283 91.6653 108.618 91.0577 108.566C88.9477 108.387 89.3998 106.941 91.0247 106.088C93.1489 104.967 95.8054 104.539 98.0897 103.79C99.5027 103.319 100.883 102.787 102.329 102.419C102.95 102.254 104.891 101.703 105.362 102.042Z" fill="#31A05F"/>
<path d="M262.246 130.632C262.651 133.882 263.155 137.174 262.637 140.443C262.279 142.718 261.375 145.153 259.175 146.208C257.409 147.065 255.44 146.914 253.523 146.509C252.464 135.46 250.123 124.509 247.806 113.676C245.215 101.699 242.375 89.7589 239.135 77.9369C237.307 71.2723 235.013 64.749 232.738 58.2163C229.262 48.2453 225.64 38.3214 221.783 28.4917C218.486 20.0938 215.354 11.0648 210.441 3.43468C212.405 2.23363 214.539 1.30106 216.748 1.1315C221.147 0.797096 223.191 4.84295 225.014 8.13522C227.011 11.7431 228.782 15.4922 230.459 19.2602C241.588 44.1288 250.015 70.5187 256.218 97.0264C257.923 104.308 259.425 111.627 260.635 119.022C261.248 122.884 261.766 126.751 262.246 130.632Z" fill="#31A05F"/>
<path d="M135.148 129.935L134.649 130.001C134.595 129.994 134.542 129.994 134.488 130.001C134.438 130.006 134.389 130.019 134.342 130.038C124.756 132.55 115.091 134.748 105.348 136.632C102.965 137.085 100.58 137.518 98.1934 137.932C95.65 138.37 91.7172 139.84 89.5648 137.932C86.4845 135.201 84.04 131.258 81.9488 127.749C77.3835 120.078 74.4942 111.527 73.4708 102.659C72.9998 98.6372 72.0013 92.6084 75.0392 89.3774C77.9924 86.2311 83.569 85.5717 87.5395 84.4884C98.4007 81.5306 109.304 78.747 120.25 76.1377C124.701 94.2098 129.844 112.094 135.148 129.935ZM107.449 103.178C108.39 98.5147 99.239 102.071 97.7507 102.584C95.3957 103.357 92.9795 103.936 90.6857 104.878C89.4188 105.405 88.4297 105.956 88.3072 107.44C87.9492 111.858 95.066 108.976 97.0112 108.382C99.4227 107.657 101.895 106.898 104.236 105.975C105.565 105.462 107.133 104.727 107.449 103.178ZM97.3456 98.331C98.8858 97.86 107.237 95.6087 104.759 92.5142C102.56 89.7966 96.1399 92.8769 93.7614 93.6635C91.4911 94.3087 88.0811 94.9964 86.4421 96.9133C85.3211 98.218 85.6885 100.286 87.596 100.554C88.6275 100.7 89.8851 100.234 90.893 100.012C93.0407 99.5462 95.2026 98.9716 97.3409 98.331H97.3456Z" fill="#31A05F"/>
<g style="mix-blend-mode:multiply">
<path d="M253.528 146.5C255.44 146.905 257.409 147.056 259.18 146.198C261.379 145.129 262.284 142.708 262.641 140.433C263.16 137.165 262.641 133.872 262.251 130.623C261.944 128.173 261.624 125.724 261.266 123.28C257.253 121.634 253.134 120.179 248.907 118.914C250.843 128.032 252.633 137.226 253.528 146.5Z" fill="#E6E6E6"/>
</g>
<path d="M132.524 116.577C133.806 120.973 135.099 125.369 136.405 129.765C139.914 129.294 143.433 128.875 146.96 128.555C161.194 127.26 175.489 127.495 189.595 129.878C202.434 132.05 214.925 135.808 227.416 139.402C234.99 141.583 242.577 143.712 250.212 145.652C250.867 145.822 251.545 146.01 252.242 146.194C251.333 136.91 249.558 127.669 247.579 118.518C211.572 108.048 169.102 110.469 132.524 116.577Z" fill="#E6E6E6"/>
<g style="mix-blend-mode:multiply">
<path d="M89.5504 137.937C91.7028 139.849 95.6356 138.38 98.179 137.937C100.569 137.523 102.953 137.089 105.333 136.637C115.067 134.788 124.732 132.59 134.328 130.043C134.375 130.024 134.424 130.011 134.474 130.006C134.527 129.999 134.581 129.999 134.634 130.006L135.133 129.94C133.833 125.559 132.544 121.178 131.267 116.794C112.742 119.94 95.7722 124.038 81.9814 127.806C84.0632 131.306 86.4983 135.22 89.5504 137.937Z" fill="#E6E6E6"/>
</g>
<path d="M109.963 150.192C109.671 143.57 121.022 139.407 128.582 137.372C128.026 135.997 127.48 134.613 126.943 133.222C117.73 135.467 108.452 137.408 99.1069 139.044C101.796 147.842 104.863 156.362 108.908 164.643C112.328 171.646 115.441 178.678 119.906 185.098C120.81 186.403 121.734 187.99 122.982 189.007C125.04 190.684 127.776 189.817 129.948 188.776C123.311 178.542 110.274 157.573 109.963 150.192Z" fill="#E6E6E6"/>
<path d="M83.6349 111.321C85.354 113.492 82.9614 115.781 81.3929 117.063C77.3753 120.36 72.5005 122.715 67.8612 124.98C64.1592 126.793 60.2499 125.95 56.2935 125.451C53.5618 125.112 50.0434 124.175 47.9522 126.44C45.1262 129.516 43.9817 133.896 43.6002 137.956C43.4265 139.601 43.447 141.261 43.6614 142.901C43.685 143.033 43.6991 143.179 43.7321 143.316C43.9537 144.68 44.3412 146.012 44.886 147.282C46.77 151.662 49.125 155.826 50.8158 160.272C52.0781 163.569 51.7578 167.115 50.7546 170.591C49.5347 174.713 47.3022 178.74 45.4653 182.135C44.2157 184.585 42.7994 186.945 41.2264 189.2C40.176 190.637 38.2167 192.163 36.3421 192.064C34.2038 191.956 34.0719 189.888 34.3121 188.263C35.2871 181.617 40.3503 175.965 40.8825 169.244C41.1463 165.947 38.179 163.639 35.7016 161.977C33.3937 160.441 30.9021 159.188 28.4718 157.856C26.1168 156.565 23.4368 155.331 21.8025 153.146C18.0345 148.068 19.9515 142.567 21.8025 137.188C23.7288 131.626 25.9708 126.026 29.1265 121.033C30.2521 119.253 31.5238 117.449 33.2288 116.172C34.8325 115.192 36.6515 114.618 38.5275 114.5C41.6314 114.213 44.9896 114.708 47.6837 115.141C52.5209 115.918 57.1319 118.099 62.0067 118.518C66.7167 118.923 70.9933 115.635 75.0156 113.587C76.6924 112.762 82.09 109.385 83.6349 111.321Z" fill="white"/>
<path d="M71.9119 99.2165C71.9119 98.9952 71.8884 98.7738 71.8742 98.5524C71.4739 98.8915 71.0971 99.2354 70.7438 99.4944C67.5034 102.061 64.1169 104.774 60.3018 106.437L60.2218 106.46C59.4622 110.029 57.459 113.21 54.5698 115.438C55.2198 115.631 55.8651 115.833 56.515 116.031C62.4496 113.5 67.8926 109.945 72.5949 105.528C72.2614 103.437 72.0334 101.33 71.9119 99.2165Z" fill="white"/>
<path d="M51.334 89.302C61.0695 93.7153 62.3223 109.268 52.9919 115.004C48.329 113.742 43.2517 112.988 38.4381 113.422L38.0801 113.455C37.1618 113.541 36.2516 113.698 35.3578 113.926C28.0856 110.158 27.9961 100.559 32.0608 94.3841C35.7487 88.7839 42.6111 87.0177 48.9413 88.4919C49.7635 88.6829 50.5649 88.9542 51.334 89.302ZM53.2839 102.137C53.3922 102.933 54.6027 102.608 54.4896 101.802C54.3177 100.555 54.0016 99.3314 53.5476 98.1567C53.2651 97.4126 52.0546 97.7329 52.3419 98.4912C52.7937 99.6665 53.1097 100.89 53.2839 102.137Z" fill="white"/>
<path d="M53.5428 98.1568C53.9967 99.3314 54.3129 100.555 54.4848 101.802C54.5978 102.594 53.3874 102.933 53.279 102.137C53.1048 100.89 52.7888 99.6665 52.337 98.4912C52.0497 97.7329 53.2837 97.4126 53.5428 98.1568Z" fill="#333333"/>
<path d="M49.045 140.763C49.2381 141.865 48.2537 142.864 47.5095 143.792L44.7212 142.515C44.2502 138.907 45.0462 134.781 46.2755 131.616C46.6226 130.688 47.0431 129.789 47.5331 128.927C47.5157 131.419 47.6731 133.909 48.0041 136.378C48.2396 137.881 48.8 139.289 49.045 140.763Z" fill="#31A05F"/>
<path d="M34.444 162.594C33.973 164.727 33.6857 166.903 33.031 168.995C32.089 171.948 30.3416 174.223 28.208 176.422C24.2058 180.664 19.7213 184.423 14.8458 187.623C13.9038 188.221 12.6086 189.153 11.4547 189.149C9.61777 189.149 9.05257 187.161 9.44821 185.654C9.97573 183.643 11.5583 181.829 12.8865 180.299C15.5335 177.256 18.7268 174.68 21.2655 171.547C24.6284 167.398 24.0915 162.01 24.2799 156.979C27.5251 159.009 31.2412 160.493 34.444 162.594Z" fill="white"/>
<path d="M83.9503 109.866C82.2924 108.641 79.6784 110.111 78.0723 110.808C75.5101 111.896 73.0656 113.238 70.6117 114.538C67.9882 115.923 65.3931 117.557 62.3175 117.331C60.9785 117.214 59.6537 116.969 58.3611 116.601C63.4518 114.278 68.1629 111.201 72.3355 107.473C72.5098 107.318 72.6747 107.148 72.8489 107.002C72.7594 106.531 72.6747 106.06 72.5993 105.556C67.8906 109.965 62.4429 113.51 56.5054 116.031C55.8554 115.833 55.2101 115.631 54.5601 115.438C57.4493 113.21 59.4525 110.029 60.2121 106.46L60.2922 106.437C64.1072 104.774 67.4937 102.061 70.7342 99.4945C71.0874 99.2166 71.4642 98.8727 71.8646 98.5525C71.841 98.0579 71.8175 97.5587 71.8033 97.0594C68.1814 99.8477 64.6489 102.989 60.4994 104.991C61.2295 99.923 59.7835 94.516 55.8931 91.0353C54.6669 89.9299 53.2846 89.011 51.7907 88.3083C48.6063 86.8255 45.0409 86.3648 41.5842 86.9895C35.7156 87.9692 31.373 91.6995 29.1593 97.1866C26.7431 103.182 28.2173 110.874 33.7892 114.472C33.4205 114.635 33.0647 114.826 32.7248 115.042C32.6809 115.062 32.6398 115.087 32.6023 115.117C28.8579 117.915 26.583 122.653 24.6566 126.76C23.3802 129.497 22.2451 132.304 21.2136 135.144C20.1397 138.097 18.8586 141.244 18.3594 144.362C17.7094 148.638 19.4803 153.612 23.0693 156.136C23.0644 156.182 23.0644 156.228 23.0693 156.273C22.9092 159.462 23.1729 162.787 22.5418 165.933C22.0143 168.566 20.5825 170.54 18.7738 172.424C15.4486 175.862 11.4404 179.107 9.10428 183.351C7.38514 186.478 8.16229 191.692 12.7922 190.062C15.3685 189.158 17.6811 187.236 19.81 185.597C22.3522 183.63 24.7861 181.526 27.1011 179.295C29.5691 176.922 32.0889 174.435 33.5019 171.232C34.6182 168.707 34.9761 166.027 35.5601 163.366C36.4004 163.974 37.1882 164.652 37.9151 165.392C39.3705 166.885 39.8745 168.175 39.4835 170.182C39.0799 171.943 38.5106 173.662 37.7832 175.315C36.2949 178.985 34.4486 182.578 33.436 186.422C32.8378 188.692 32.3621 192.135 35.1551 193.147C38.0706 194.207 41.1603 191.612 42.6628 189.342C46.3507 183.77 49.8784 177.444 51.7954 170.926C52.0403 170.109 52.257 169.29 52.4454 168.467C53.3214 164.638 52.7845 161.718 51.2537 158.138C49.3698 153.673 46.6945 149.392 45.2109 144.757C45.1308 144.512 45.0601 144.286 44.9989 144.013L47.3916 145.11C47.5368 145.187 47.7055 145.206 47.8643 145.165C48.0231 145.123 48.1603 145.023 48.2488 144.884C48.9219 143.898 49.6715 142.965 50.4907 142.096C50.5698 142.019 50.6265 141.921 50.6547 141.814C50.6829 141.707 50.6816 141.595 50.6509 141.488C48.8846 137.005 48.7904 132.243 48.7669 127.486C48.7721 127.431 48.7721 127.376 48.7669 127.321C49.2821 126.785 49.9619 126.437 50.698 126.332C52.5301 126.143 54.4659 126.506 56.284 126.727C60.052 127.198 64.1779 128.14 67.7198 126.445C72.5192 124.142 77.4459 121.702 81.6707 118.438C84.0445 116.61 87.5723 112.536 83.9503 109.866ZM32.0606 94.3653C35.7485 88.7651 42.611 86.9989 48.9412 88.4731C49.7633 88.6641 50.5647 88.9354 51.3338 89.2832C61.0693 93.6965 62.3222 109.249 52.9917 114.986C48.3289 113.723 43.2515 112.97 38.4379 113.403L38.08 113.436C37.1617 113.522 36.2515 113.68 35.3576 113.907C28.0854 110.139 27.9959 100.559 32.0606 94.3653ZM33.0309 168.995C32.0889 171.948 30.3415 174.223 28.2079 176.422C24.2057 180.664 19.7212 184.423 14.8457 187.623C13.9037 188.221 12.6085 189.153 11.4546 189.149C9.61767 189.149 9.05247 187.161 9.44811 185.654C9.97562 183.643 11.5582 181.829 12.8864 180.299C15.5334 177.256 18.7267 174.68 21.2654 171.547C24.6283 167.398 24.0914 162.01 24.2798 156.98C27.5249 159.024 31.2411 160.507 34.4627 162.608C33.9729 164.727 33.7044 166.899 33.0309 168.995ZM49.0448 140.763C49.2379 141.865 48.2535 142.864 47.5093 143.792L44.721 142.515C44.25 138.907 45.046 134.781 46.2753 131.616C46.6224 130.688 47.043 129.789 47.5329 128.927C47.5155 131.419 47.6729 133.909 48.0039 136.378C48.2394 137.881 48.7999 139.289 49.0448 140.763ZM81.374 117.077C77.3564 120.374 72.4816 122.729 67.8422 124.994C64.1402 126.808 60.2309 125.964 56.2746 125.465C53.5428 125.126 50.0244 124.189 47.9332 126.454C45.1072 129.53 43.9627 133.91 43.5812 137.97C43.4075 139.615 43.4281 141.275 43.6424 142.916C43.666 143.052 43.6895 143.208 43.7131 143.33C43.9347 144.694 44.3222 146.026 44.867 147.296C46.751 151.676 49.106 155.84 50.7969 160.286C52.0592 163.583 51.7389 167.13 50.7357 170.605C49.5158 174.727 47.2832 178.754 45.4464 182.15C44.1968 184.599 42.7804 186.959 41.2074 189.215C40.1571 190.651 38.1977 192.177 36.3232 192.078C34.1848 191.97 34.053 189.902 34.2932 188.277C35.2681 181.632 40.3313 175.98 40.8636 169.258C41.1273 165.961 38.1601 163.654 35.6826 161.991C33.3747 160.456 30.8832 159.203 28.4528 157.87C26.0978 156.579 23.4179 155.345 21.7835 153.16C18.0155 148.082 19.9325 142.581 21.7835 137.202C23.7099 131.64 25.9518 126.04 29.1075 121.047C30.2332 119.267 31.5049 117.463 33.2099 116.187C34.8136 115.206 36.6325 114.632 38.5086 114.515C41.6125 114.227 44.9707 114.722 47.6648 115.155C52.5019 115.932 57.1129 118.113 61.9878 118.532C66.6977 118.937 70.9744 115.65 74.9967 113.601C76.664 112.753 82.0616 109.362 83.6065 111.326C85.3539 113.507 82.9565 115.796 81.3928 117.077H81.374Z" fill="#333333"/>
<path d="M71.9118 99.2165C71.9118 98.9952 71.8883 98.7738 71.8741 98.5524C71.4738 98.8915 71.097 99.2354 70.7438 99.4944L69.5804 100.413C69.5192 102.81 69.4815 105.759 69.5804 108.156C70.626 107.308 71.6481 106.432 72.623 105.509C72.2807 103.425 72.0433 101.325 71.9118 99.2165Z" fill="#E6E6E6"/>
<g style="mix-blend-mode:multiply">
<path d="M79.8243 123.873C82.7727 121.518 86.9599 117.067 86.4182 114.543C86.2063 113.53 85.9096 113.153 85.4762 112.814C85.3632 114.967 83.2531 117.209 81.6612 118.438C80.5967 119.262 79.4805 120.025 78.3359 120.755C78.8101 121.807 79.3062 122.846 79.8243 123.873Z" fill="#E6E6E6"/>
</g>
</svg>
