<svg width="362" height="101" viewBox="0 0 362 101" fill="none" xmlns="http://www.w3.org/2000/svg">
<g clip-path="url(#clip0_693_12)">
<path d="M68.0792 66.5666C58.0582 61.2905 47.3082 58.4819 36.6026 57.9324L22.428 57.9332C18.6807 57.9311 15.6521 54.8852 15.6534 51.1569L15.6519 38.6828C15.6526 34.9473 18.6928 31.9074 22.4282 31.9082L34.1719 31.9074C34.8519 31.9074 35.4033 32.4586 35.4034 33.1388L35.4034 49.1212C35.4034 49.8132 35.9739 50.3722 36.6712 50.3521C37.3455 50.3327 37.866 49.7449 37.866 49.0702L37.866 32.9722C37.8661 32.3328 38.3555 31.799 38.9929 31.7463C49.1744 30.9032 59.0328 28.0341 68.0801 23.2736C71.5089 21.4677 75.6353 23.9514 75.6359 27.835L75.6344 62.0047C75.6379 65.8816 71.514 68.3755 68.0792 66.5666ZM80.2827 49.8137C82.6404 46.995 82.6183 42.79 80.2699 39.9991C79.5318 39.1219 78.0984 39.6488 78.0982 40.7953C78.0979 43.5245 78.0978 46.2633 78.0982 49.0315C78.0985 50.1878 79.5408 50.7008 80.2827 49.8137ZM33.881 73.3344L33.8924 61.628C33.8931 60.9476 33.3411 60.3956 32.6607 60.3954C29.0045 60.3943 28.8653 60.3959 23.9877 60.3954C23.3076 60.3954 22.7554 60.9467 22.7555 61.6269L22.756 73.3328C22.7568 74.8322 23.5724 76.1182 24.7625 76.8053C25.9169 77.4718 26.5839 77.3361 29.8784 77.3365C32.0858 77.3366 33.8817 75.5405 33.881 73.3344ZM92.7502 46.2008C93.4302 46.2008 93.9817 45.6496 93.9816 44.9695C93.9816 44.2897 93.4307 43.7383 92.7502 43.7382L89.0713 43.7382C87.8123 43.7382 87.373 45.4112 88.4566 46.0368C88.8359 46.2556 88.7662 46.2008 92.7502 46.2008ZM86.1349 35.0136L88.2574 32.8913C88.7384 32.4104 88.7383 31.6309 88.2575 31.15C87.7761 30.6691 86.9969 30.669 86.516 31.1499L84.3935 33.2722C83.822 33.8437 83.9466 34.8045 84.6489 35.21C85.1198 35.4817 85.7322 35.4163 86.1349 35.0136ZM88.2575 58.7891C88.7385 58.3082 88.7383 57.5284 88.2575 57.0477L86.1349 54.9252C85.654 54.4447 84.8744 54.4445 84.3935 54.9252C83.9127 55.406 83.9128 56.1858 84.3935 56.6667C86.7148 58.9879 86.5793 58.8745 86.7715 58.9855C87.2423 59.2573 87.8547 59.1918 88.2575 58.7891Z" fill="white"/>
</g>
<path d="M106.003 45.3783C106.003 50.3964 109.652 54.31 114.814 54.31C119.977 54.31 123.626 50.3964 123.626 45.3783C123.626 40.5044 119.977 36.6868 114.814 36.6868C109.652 36.6868 106.003 40.5044 106.003 45.3783ZM109.196 45.3783C109.196 42.065 111.549 39.52 114.814 39.52C118.08 39.52 120.433 42.065 120.433 45.3783C120.433 48.8357 118.08 51.4768 114.814 51.4768C111.549 51.4768 109.196 48.8357 109.196 45.3783Z" fill="white"/>
<path d="M125.056 53.0134C125.056 53.6857 125.392 54.0218 126.04 54.0218H127.097C127.745 54.0218 128.081 53.6857 128.081 53.0134V49.0758C128.081 46.8429 129.161 44.634 131.394 44.634C132.043 44.634 132.427 44.2739 132.427 43.6256V42.6893C132.427 42.017 132.187 41.6809 131.514 41.6809C129.786 41.6809 128.441 43.3135 127.961 44.7781H127.913C127.913 44.7781 127.985 44.3939 127.985 43.9378V42.7853C127.985 42.137 127.625 41.7769 126.976 41.7769H126.04C125.392 41.7769 125.056 42.137 125.056 42.7853V53.0134Z" fill="white"/>
<path d="M134.107 39.688H135.164C135.812 39.688 136.148 39.3519 136.148 38.7036V37.9834C136.148 37.3351 135.812 36.9749 135.164 36.9749H134.107C133.459 36.9749 133.099 37.3351 133.099 37.9834V38.7036C133.099 39.3519 133.459 39.688 134.107 39.688ZM133.099 54.1419C133.099 56.0146 131.946 56.2788 131.106 56.3748C130.602 56.4468 130.122 56.5909 130.122 57.3592V57.9834C130.122 58.6557 130.458 58.9918 131.106 58.9918H131.466C132.667 58.9918 136.148 58.3196 136.148 54.334V42.7853C136.148 42.137 135.812 41.7769 135.14 41.7769H134.107C133.459 41.7769 133.099 42.137 133.099 42.7853V54.1419Z" fill="white"/>
<path d="M139.196 39.688H140.252C140.9 39.688 141.261 39.3519 141.261 38.7036V37.9834C141.261 37.3351 140.9 36.9749 140.252 36.9749H139.196C138.547 36.9749 138.211 37.3351 138.211 37.9834V38.7036C138.211 39.3519 138.547 39.688 139.196 39.688ZM138.211 53.0134C138.211 53.6857 138.547 54.0218 139.196 54.0218H140.252C140.9 54.0218 141.237 53.6857 141.237 53.0134V42.7853C141.237 42.137 140.9 41.7769 140.252 41.7769H139.196C138.547 41.7769 138.211 42.137 138.211 42.7853V53.0134Z" fill="white"/>
<path d="M148.606 47.8994C148.606 51.7169 151.344 54.31 155.473 54.31C159.579 54.31 162.316 51.7169 162.316 47.8994V37.9834C162.316 37.3351 161.98 36.9749 161.332 36.9749H160.227C159.579 36.9749 159.243 37.3351 159.243 37.9834V47.8754C159.243 50.1803 157.73 51.4768 155.449 51.4768C153.168 51.4768 151.68 50.1803 151.68 47.8754V37.9834C151.68 37.3351 151.344 36.9749 150.671 36.9749H149.591C148.943 36.9749 148.606 37.3351 148.606 37.9834V47.8994Z" fill="white"/>
<path d="M163.634 53.2055C163.634 53.7337 163.995 54.0218 164.643 54.0218H173.454C174.127 54.0218 174.463 53.6857 174.463 53.0134V52.4372C174.463 51.7889 174.127 51.4288 173.454 51.4288H168.893C168.1 51.4288 167.74 51.5008 167.74 51.5008V51.4528C167.74 51.4528 168.244 51.0206 168.797 50.3243L173.863 43.9618C174.175 43.5776 174.295 43.3375 174.295 42.8333V42.5932C174.295 42.065 173.935 41.7769 173.286 41.7769H164.883C164.211 41.7769 163.875 42.137 163.875 42.7853V43.3615C163.875 44.0098 164.211 44.3699 164.883 44.3699H169.037C169.829 44.3699 170.165 44.3219 170.165 44.3219V44.3699C170.165 44.3699 169.709 44.8021 169.133 45.4984L164.067 51.837C163.754 52.2211 163.634 52.4612 163.634 52.9654V53.2055Z" fill="white"/>
<path d="M174.727 47.8994C174.727 51.6689 177.729 54.31 181.45 54.31C185.172 54.31 188.197 51.6689 188.197 47.8994C188.197 44.1539 185.172 41.4888 181.45 41.4888C177.729 41.4888 174.727 44.1539 174.727 47.8994ZM177.825 47.8994C177.825 45.6425 179.457 44.0818 181.45 44.0818C183.443 44.0818 185.1 45.6425 185.1 47.8994C185.1 50.1803 183.443 51.7169 181.45 51.7169C179.457 51.7169 177.825 50.1803 177.825 47.8994Z" fill="white"/>
<path d="M189.471 53.0134C189.471 53.6857 189.807 54.0218 190.456 54.0218H191.512C192.16 54.0218 192.496 53.6857 192.496 53.0134V49.0758C192.496 46.8429 193.577 44.634 195.81 44.634C196.458 44.634 196.842 44.2739 196.842 43.6256V42.6893C196.842 42.017 196.602 41.6809 195.93 41.6809C194.201 41.6809 192.857 43.3135 192.376 44.7781H192.328C192.328 44.7781 192.4 44.3939 192.4 43.9378V42.7853C192.4 42.137 192.04 41.7769 191.392 41.7769H190.456C189.807 41.7769 189.471 42.137 189.471 42.7853V53.0134Z" fill="white"/>
<path d="M203.013 53.0134C203.013 53.6857 203.349 54.0218 203.997 54.0218H205.101C205.75 54.0218 206.086 53.6857 206.086 53.0134V46.5788H208.319L212.088 53.3256C212.352 53.8058 212.713 54.0218 213.265 54.0218H214.585C215.378 54.0218 215.69 53.5176 215.282 52.8214L210.84 45.1382V45.0902L214.969 38.1754C215.354 37.5032 215.065 36.9749 214.273 36.9749H213.097C212.544 36.9749 212.184 37.191 211.92 37.6712L208.319 43.9138H206.086V37.9834C206.086 37.3351 205.75 36.9749 205.101 36.9749H203.997C203.349 36.9749 203.013 37.3351 203.013 37.9834V53.0134Z" fill="white"/>
<path d="M215.736 50.6365C215.736 52.8694 217.561 54.31 219.794 54.31C222.483 54.31 223.635 52.005 223.635 52.005H223.683C223.683 52.005 223.635 52.1971 223.635 52.5332V53.0134C223.635 53.6857 223.971 54.0218 224.62 54.0218H225.436C226.108 54.0218 226.444 53.6857 226.444 53.0134V46.3627C226.444 43.2655 224.548 41.4888 221.378 41.4888C219.554 41.4888 218.161 42.089 217.369 42.4972C216.792 42.8093 216.696 43.2895 216.985 43.8417L217.225 44.2979C217.513 44.8741 217.969 44.9702 218.569 44.7061C219.145 44.3939 220.082 44.0098 221.114 44.0098C222.363 44.0098 223.395 44.562 223.395 46.1707V46.4588H222.891C220.154 46.4588 215.736 47.059 215.736 50.6365ZM218.761 50.3724C218.761 48.5476 221.378 48.3075 222.915 48.3075H223.419V48.7637C223.419 50.2523 222.315 51.981 220.61 51.981C219.386 51.981 218.761 51.1887 218.761 50.3724Z" fill="white"/>
<path d="M228.303 50.2043C228.303 53.7097 230.391 54.1419 232.024 54.1419C232.744 54.1419 233.032 53.7337 233.032 53.1095V52.2931C233.032 51.7409 232.72 51.4768 232.288 51.4288C231.832 51.3808 231.328 51.1647 231.328 49.9642V37.9834C231.328 37.3351 230.992 36.9749 230.343 36.9749H229.287C228.639 36.9749 228.303 37.3351 228.303 37.9834V50.2043Z" fill="white"/>
<path d="M233.904 49.6521C233.904 52.9894 235.537 54.31 238.154 54.31C240.242 54.31 241.827 52.9894 242.403 51.7409H242.451C242.451 51.7409 242.403 52.005 242.403 52.2931V53.0134C242.403 53.6857 242.739 54.0218 243.388 54.0218H244.324C244.972 54.0218 245.333 53.6857 245.333 53.0134V42.7853C245.333 42.137 244.972 41.7769 244.324 41.7769H243.292C242.619 41.7769 242.283 42.137 242.283 42.7853V47.3952C242.283 49.58 241.059 51.5248 238.85 51.5248C237.337 51.5248 236.953 50.5164 236.953 49.0278V42.7853C236.953 42.137 236.617 41.7769 235.945 41.7769H234.912C234.264 41.7769 233.904 42.137 233.904 42.7853V49.6521Z" fill="white"/>
<path d="M252.313 52.9894C252.265 53.6377 252.601 54.0218 253.274 54.0218H254.354C255.002 54.0218 255.339 53.6857 255.387 53.0615L256.035 44.49C256.107 43.3615 256.059 41.8249 256.059 41.8249H256.107C256.107 41.8249 256.659 43.5056 257.043 44.49L259.492 50.3003C259.684 50.8285 260.044 51.0927 260.645 51.0927H261.653C262.229 51.0927 262.59 50.8285 262.782 50.3003L265.255 44.49C265.639 43.5056 266.167 41.8489 266.167 41.8489H266.215C266.215 41.8489 266.167 43.3615 266.239 44.49L266.887 53.0615C266.935 53.6857 267.295 54.0218 267.92 54.0218H269C269.672 54.0218 270.009 53.6377 269.96 52.9894L268.736 37.9353C268.688 37.3111 268.328 36.9749 267.704 36.9749H266.215C265.615 36.9749 265.255 37.2391 265.063 37.7913L262.013 45.4024C261.629 46.4108 261.173 47.8994 261.173 47.8994H261.125C261.125 47.8994 260.645 46.4108 260.261 45.4024L257.211 37.7913C257.019 37.2391 256.659 36.9749 256.083 36.9749H254.57C253.946 36.9749 253.61 37.3111 253.538 37.9353L252.313 52.9894Z" fill="white"/>
<path d="M271.009 47.8994C271.009 51.6689 274.01 54.31 277.732 54.31C281.453 54.31 284.479 51.6689 284.479 47.8994C284.479 44.1539 281.453 41.4888 277.732 41.4888C274.01 41.4888 271.009 44.1539 271.009 47.8994ZM274.106 47.8994C274.106 45.6425 275.739 44.0818 277.732 44.0818C279.725 44.0818 281.381 45.6425 281.381 47.8994C281.381 50.1803 279.725 51.7169 277.732 51.7169C275.739 51.7169 274.106 50.1803 274.106 47.8994Z" fill="white"/>
<path d="M288.324 53.2055C288.492 53.7817 288.876 54.0218 289.453 54.0218H291.373C291.95 54.0218 292.31 53.7817 292.502 53.2055L296.199 42.9294C296.439 42.2331 296.127 41.7769 295.383 41.7769H294.255C293.678 41.7769 293.294 42.041 293.126 42.6172L290.845 49.364C290.605 50.0842 290.413 51.2127 290.413 51.2127H290.365C290.365 51.2127 290.149 50.0842 289.909 49.364L287.628 42.6172C287.46 42.041 287.076 41.7769 286.499 41.7769H285.371C284.627 41.7769 284.339 42.2331 284.579 42.9294L288.324 53.2055Z" fill="white"/>
<path d="M296.358 47.8994C296.358 51.3808 298.879 54.31 302.937 54.31C304.857 54.31 306.298 53.5897 307.09 53.0855C307.618 52.7733 307.714 52.2931 307.426 51.7409L307.138 51.2607C306.826 50.7085 306.394 50.6365 305.794 50.9246C305.217 51.2847 304.281 51.7169 303.153 51.7169C301.304 51.7169 299.671 50.5644 299.479 48.3555H306.946C307.546 48.3555 308.003 47.8513 308.003 47.3231C308.003 43.9618 306.058 41.4888 302.576 41.4888C298.903 41.4888 296.358 44.1298 296.358 47.8994ZM299.551 46.5068C299.839 44.8741 300.944 43.7937 302.504 43.7937C303.897 43.7937 304.929 44.8021 304.977 46.5068H299.551Z" fill="white"/>
<path d="M309.249 53.0134C309.249 53.6857 309.585 54.0218 310.233 54.0218H311.289C311.938 54.0218 312.274 53.6857 312.274 53.0134V48.5236C312.274 46.4828 313.282 44.2739 315.443 44.2739C316.884 44.2739 317.076 45.4024 317.076 46.7229V53.0134C317.076 53.6857 317.436 54.0218 318.084 54.0218H319.141C319.789 54.0218 320.125 53.6857 320.125 53.0134V48.5236C320.125 46.3868 321.181 44.2739 323.246 44.2739C324.663 44.2739 324.927 45.3303 324.927 46.7229V53.0134C324.927 53.6857 325.263 54.0218 325.935 54.0218H326.968C327.616 54.0218 327.976 53.6857 327.976 53.0134V46.1467C327.976 42.9294 326.512 41.4888 323.967 41.4888C322.046 41.4888 320.437 42.7373 319.789 44.0098H319.741C319.237 42.3531 318.012 41.4888 316.163 41.4888C314.243 41.4888 312.754 42.8813 312.154 44.0818H312.106C312.106 44.0818 312.154 43.7937 312.154 43.5296V42.7853C312.154 42.137 311.818 41.7769 311.169 41.7769H310.233C309.585 41.7769 309.249 42.137 309.249 42.7853V53.0134Z" fill="white"/>
<path d="M329.115 47.8994C329.115 51.3808 331.636 54.31 335.694 54.31C337.615 54.31 339.055 53.5897 339.847 53.0855C340.376 52.7733 340.472 52.2931 340.184 51.7409L339.896 51.2607C339.583 50.7085 339.151 50.6365 338.551 50.9246C337.975 51.2847 337.038 51.7169 335.91 51.7169C334.061 51.7169 332.428 50.5644 332.236 48.3555H339.703C340.304 48.3555 340.76 47.8513 340.76 47.3231C340.76 43.9618 338.815 41.4888 335.334 41.4888C331.66 41.4888 329.115 44.1298 329.115 47.8994ZM332.308 46.5068C332.597 44.8741 333.701 43.7937 335.262 43.7937C336.654 43.7937 337.687 44.8021 337.735 46.5068H332.308Z" fill="white"/>
<path d="M342.006 53.0134C342.006 53.6857 342.342 54.0218 342.99 54.0218H344.047C344.695 54.0218 345.031 53.6857 345.031 53.0134V48.2835C345.031 46.0746 346.4 44.2739 348.561 44.2739C350.097 44.2739 350.481 45.2823 350.481 46.7709V53.0134C350.481 53.6857 350.841 54.0218 351.49 54.0218H352.522C353.194 54.0218 353.531 53.6857 353.531 53.0134V46.1467C353.531 42.9053 351.97 41.4888 349.257 41.4888C346.784 41.4888 345.439 43.0494 344.911 44.0818H344.863C344.863 44.0818 344.911 43.7937 344.911 43.5296V42.7853C344.911 42.137 344.575 41.7769 343.927 41.7769H342.99C342.342 41.7769 342.006 42.137 342.006 42.7853V53.0134Z" fill="white"/>
<path d="M355.974 49.6521C355.974 52.9654 358.567 54.1419 360.752 54.1419C361.592 54.1419 362 53.8538 362 53.1335V52.3892C362 51.7169 361.736 51.4768 360.992 51.4048C360.151 51.3087 359.023 50.9486 359.023 49.1239V44.3699H360.824C361.448 44.3699 361.808 44.0338 361.808 43.3615V42.9534C361.808 42.3051 361.448 41.945 360.8 41.945H359.023V39.4479C359.023 38.7997 358.663 38.4395 358.014 38.4395H357.054C356.406 38.4395 356.046 38.7997 356.046 39.4479V41.945H355.349C354.677 41.945 354.341 42.3051 354.341 42.9534V43.3615C354.341 44.0338 354.677 44.3699 355.325 44.3699H355.974V49.6521Z" fill="white"/>
<defs>
<clipPath id="clip0_693_12">
<rect width="73.8494" height="73.8494" fill="white" transform="translate(36.9396) scale(1.0004) rotate(30)"/>
</clipPath>
</defs>
</svg>
