<svg width="15" height="18" viewBox="0 0 15 18" fill="none" xmlns="http://www.w3.org/2000/svg">
<path d="M7.36089 8.67058C8.54645 8.67058 9.57305 8.24335 10.4119 7.40044C11.2507 6.55766 11.6759 5.52647 11.6759 4.33515C11.6759 3.14425 11.2507 2.11292 10.4117 1.26987C9.57278 0.427226 8.54631 0 7.36089 0C6.17519 0 5.14886 0.427226 4.31005 1.27C3.47125 2.11278 3.0459 3.14411 3.0459 4.33515C3.0459 5.52647 3.47125 6.5578 4.31019 7.40057C5.14913 8.24322 6.1756 8.67058 7.36089 8.67058Z" fill="#31A05F"/>
<path d="M14.9103 13.841C14.8861 13.4903 14.8371 13.1077 14.7651 12.7037C14.6924 12.2966 14.5988 11.9118 14.4867 11.5602C14.3709 11.1966 14.2135 10.8377 14.0188 10.4937C13.8168 10.1366 13.5795 9.8257 13.3133 9.56986C13.0349 9.30221 12.694 9.08702 12.2998 8.93005C11.907 8.77391 11.4717 8.69481 11.006 8.69481C10.8231 8.69481 10.6463 8.7702 10.3047 8.99363C10.0945 9.13137 9.8486 9.29067 9.57415 9.46687C9.33947 9.6171 9.02155 9.75786 8.62887 9.8853C8.24576 10.0099 7.85677 10.073 7.47283 10.073C7.0889 10.073 6.70004 10.0099 6.31652 9.8853C5.92425 9.758 5.60633 9.61724 5.37193 9.467C5.10007 9.29246 4.85405 9.13316 4.64069 8.9935C4.29954 8.77006 4.12254 8.69467 3.93966 8.69467C3.47385 8.69467 3.03867 8.77391 2.64598 8.93019C2.25207 9.08688 1.91106 9.30207 1.63237 9.57C1.36625 9.82598 1.12884 10.1368 0.927099 10.4937C0.732604 10.8377 0.575149 11.1965 0.459244 11.5603C0.347303 11.912 0.253678 12.2966 0.180964 12.7037C0.108934 13.1072 0.0600024 13.4899 0.0358101 13.8414C0.0120278 14.1859 0 14.5433 0 14.9044C0 15.844 0.297279 16.6046 0.883498 17.1656C1.46247 17.7192 2.22856 18 3.16017 18H11.7863C12.7179 18 13.4837 17.7193 14.0628 17.1656C14.6492 16.605 14.9465 15.8442 14.9465 14.9042C14.9463 14.5415 14.9342 14.1838 14.9103 13.841Z" fill="#31A05F"/>
</svg>
