<svg width="14" height="14" viewBox="0 0 14 14" fill="none" xmlns="http://www.w3.org/2000/svg">
<path d="M13.6896 1.80872C14.1034 1.39495 14.1034 0.724087 13.6896 0.310314C13.2758 -0.103459 12.605 -0.103459 12.1912 0.310314L7.75134 4.75015C7.33633 5.16516 6.66347 5.16516 6.24846 4.75015L1.80862 0.310314C1.39485 -0.103459 0.72399 -0.103459 0.310217 0.310314C-0.103557 0.724087 -0.103556 1.39495 0.310217 1.80872L4.75006 6.24856C5.16507 6.66357 5.16507 7.33643 4.75006 7.75144L0.310217 12.1913C-0.103556 12.6051 -0.103557 13.2759 0.310217 13.6897C0.72399 14.1035 1.39485 14.1035 1.80862 13.6897L6.24846 9.24985C6.66347 8.83484 7.33633 8.83484 7.75134 9.24985L12.1912 13.6897C12.605 14.1035 13.2758 14.1035 13.6896 13.6897C14.1034 13.2759 14.1034 12.6051 13.6896 12.1913L9.24975 7.75144C8.83474 7.33643 8.83474 6.66357 9.24975 6.24856L13.6896 1.80872Z" fill="#31A05F"/>
</svg>
