<svg width="24" height="24" viewBox="0 0 24 24" fill="none" xmlns="http://www.w3.org/2000/svg">
<path d="M12 3.457C11.586 3.457 11.25 3.121 11.25 2.707V0.750001C11.25 0.336 11.586 0 12 0C12.414 0 12.75 0.336 12.75 0.750001V2.707C12.75 3.121 12.414 3.457 12 3.457Z" fill="#31A05F"/>
<path d="M18.571 6.179C18.379 6.179 18.187 6.106 18.041 5.959C17.748 5.666 17.748 5.191 18.041 4.898L19.425 3.514C19.718 3.221 20.193 3.221 20.486 3.514C20.779 3.807 20.779 4.282 20.486 4.575L19.102 5.959C18.955 6.105 18.763 6.179 18.571 6.179Z" fill="#31A05F"/>
<path d="M23.25 12.75H21.293C20.879 12.75 20.543 12.414 20.543 12C20.543 11.586 20.879 11.25 21.293 11.25H23.25C23.664 11.25 24 11.586 24 12C24 12.414 23.664 12.75 23.25 12.75Z" fill="#31A05F"/>
<path d="M19.955 20.705C19.763 20.705 19.571 20.632 19.425 20.485L18.041 19.101C17.748 18.808 17.748 18.333 18.041 18.04C18.334 17.747 18.809 17.747 19.102 18.04L20.486 19.424C20.779 19.717 20.779 20.192 20.486 20.485C20.339 20.632 20.147 20.705 19.955 20.705Z" fill="#31A05F"/>
<path d="M4.04513 20.705C3.85313 20.705 3.66113 20.632 3.51513 20.485C3.22213 20.192 3.22213 19.717 3.51513 19.424L4.89913 18.04C5.19213 17.747 5.66713 17.747 5.96013 18.04C6.25313 18.333 6.25313 18.808 5.96013 19.101L4.57613 20.485C4.42913 20.632 4.23713 20.705 4.04513 20.705Z" fill="#31A05F"/>
<path d="M2.707 12.75H0.750001C0.336 12.75 0 12.414 0 12C0 11.586 0.336 11.25 0.750001 11.25H2.707C3.121 11.25 3.457 11.586 3.457 12C3.457 12.414 3.121 12.75 2.707 12.75Z" fill="#31A05F"/>
<path d="M5.42913 6.179C5.23713 6.179 5.04513 6.106 4.89913 5.959L3.51513 4.575C3.22213 4.282 3.22213 3.807 3.51513 3.514C3.80813 3.221 4.28313 3.221 4.57613 3.514L5.96013 4.898C6.25313 5.191 6.25313 5.666 5.96013 5.959C5.81213 6.105 5.62113 6.179 5.42913 6.179Z" fill="#31A05F"/>
<path d="M15 21V22.25C15 23.21 14.21 24 13.25 24H10.75C9.91 24 9 23.36 9 21.96V21H15Z" fill="#31A05F"/>
<path d="M16.4099 6.55997C14.7699 5.22997 12.6099 4.70997 10.4999 5.15997C7.84985 5.70997 5.69985 7.86998 5.14985 10.52C4.58985 13.24 5.60985 15.94 7.78985 17.59C8.37985 18.03 8.78986 18.71 8.92986 19.5V19.51C8.94986 19.5 8.97986 19.5 8.99986 19.5H14.9999C15.0199 19.5 15.0299 19.5 15.0499 19.51V19.5C15.1899 18.74 15.6399 18.04 16.3299 17.5C18.0199 16.16 18.9999 14.16 18.9999 12C18.9999 9.87998 18.0599 7.89997 16.4099 6.55997ZM15.7499 12.5C15.3399 12.5 14.9999 12.16 14.9999 11.75C14.9999 10.23 13.7699 8.99998 12.2499 8.99998C11.8399 8.99998 11.4999 8.65998 11.4999 8.24998C11.4999 7.83998 11.8399 7.49997 12.2499 7.49997C14.5899 7.49997 16.4999 9.40998 16.4999 11.75C16.4999 12.16 16.1599 12.5 15.7499 12.5Z" fill="#31A05F"/>
<path d="M8.92986 19.5H8.99985C8.97985 19.5 8.94986 19.5 8.92986 19.51V19.5Z" fill="#31A05F"/>
<path d="M15.05 19.5V19.51C15.03 19.5 15.02 19.5 15 19.5H15.05Z" fill="#31A05F"/>
</svg>
