<svg width="19" height="22" viewBox="0 0 19 22" fill="none" xmlns="http://www.w3.org/2000/svg">
<g opacity="0.8">
<path d="M9.00609 10.5974C10.4567 10.5974 11.7129 10.0752 12.7392 9.04501C13.7656 8.01495 14.2858 6.7546 14.2858 5.29854C14.2858 3.84299 13.7656 2.58247 12.739 1.55207C11.7125 0.522167 10.4566 0 9.00609 0C7.55529 0 6.29949 0.522167 5.27314 1.55223C4.2468 2.5823 3.72635 3.84282 3.72635 5.29854C3.72635 6.7546 4.2468 8.01512 5.27331 9.04518C6.29983 10.0751 7.55579 10.5974 9.00609 10.5974Z" fill="#838FAF"/>
<path d="M18.244 16.9168C18.2144 16.4881 18.1545 16.0205 18.0664 15.5267C17.9774 15.0292 17.8628 14.5589 17.7257 14.1291C17.584 13.6848 17.3914 13.246 17.1532 12.8256C16.9061 12.3892 16.6157 12.0092 16.2899 11.6965C15.9493 11.3694 15.5322 11.1063 15.0499 10.9145C14.5692 10.7237 14.0366 10.627 13.4668 10.627C13.243 10.627 13.0266 10.7191 12.6087 10.9922C12.3515 11.1606 12.0506 11.3553 11.7148 11.5706C11.4276 11.7542 11.0386 11.9263 10.5582 12.082C10.0894 12.2343 9.61342 12.3115 9.14364 12.3115C8.67387 12.3115 8.19807 12.2343 7.7288 12.082C7.24882 11.9264 6.85982 11.7544 6.57301 11.5708C6.24037 11.3574 5.93934 11.1627 5.67828 10.992C5.26085 10.719 5.04427 10.6268 4.82051 10.6268C4.25055 10.6268 3.71807 10.7237 3.23759 10.9147C2.7556 11.1062 2.33834 11.3692 1.99734 11.6967C1.67172 12.0095 1.38123 12.3894 1.13438 12.8256C0.896403 13.246 0.703743 13.6846 0.561924 14.1292C0.424955 14.5591 0.310396 15.0292 0.221425 15.5267C0.13329 16.0198 0.0734181 16.4876 0.0438167 16.9173C0.0147171 17.3383 0 17.7752 0 18.2164C0 19.3648 0.363746 20.2945 1.08104 20.9802C1.78946 21.6568 2.72684 22 3.86674 22H14.4216C15.5615 22 16.4985 21.6569 17.2071 20.9802C17.9245 20.295 18.2883 19.3652 18.2883 18.2163C18.2881 17.773 18.2732 17.3358 18.244 16.9168Z" fill="#838FAF"/>
</g>
</svg>
