<svg width="24" height="24" viewBox="0 0 24 24" fill="none" xmlns="http://www.w3.org/2000/svg">
<g opacity="0.8">
<path d="M11.9568 3.457C11.5442 3.457 11.2095 3.121 11.2095 2.707V0.75C11.2095 0.336 11.5442 0 11.9568 0C12.3693 0 12.704 0.336 12.704 0.75V2.707C12.704 3.121 12.3693 3.457 11.9568 3.457Z" fill="#9CA5BF"/>
<path d="M18.5039 6.17899C18.3125 6.17899 18.1212 6.106 17.9758 5.959C17.6838 5.666 17.6838 5.191 17.9758 4.898L19.3548 3.514C19.6467 3.221 20.12 3.221 20.4119 3.514C20.7039 3.807 20.7039 4.282 20.4119 4.575L19.0329 5.959C18.8865 6.105 18.6952 6.17899 18.5039 6.17899Z" fill="#9CA5BF"/>
<path d="M23.166 12.75H21.216C20.8035 12.75 20.4687 12.414 20.4687 12C20.4687 11.586 20.8035 11.25 21.216 11.25H23.166C23.5785 11.25 23.9132 11.586 23.9132 12C23.9132 12.414 23.5785 12.75 23.166 12.75Z" fill="#9CA5BF"/>
<path d="M19.8829 20.705C19.6916 20.705 19.5002 20.632 19.3548 20.485L17.9758 19.101C17.6838 18.808 17.6838 18.333 17.9758 18.04C18.2677 17.747 18.741 17.747 19.0329 18.04L20.4119 19.424C20.7039 19.717 20.7039 20.192 20.4119 20.485C20.2655 20.632 20.0742 20.705 19.8829 20.705Z" fill="#9CA5BF"/>
<path d="M4.03073 20.705C3.83942 20.705 3.64812 20.632 3.50264 20.485C3.2107 20.192 3.2107 19.717 3.50264 19.424L4.88165 18.04C5.17359 17.747 5.64687 17.747 5.93882 18.04C6.23076 18.333 6.23076 18.808 5.93882 19.101L4.55981 20.485C4.41334 20.632 4.22204 20.705 4.03073 20.705Z" fill="#9CA5BF"/>
<path d="M2.69723 12.75H0.747292C0.334787 12.75 0 12.414 0 12C0 11.586 0.334787 11.25 0.747292 11.25H2.69723C3.10973 11.25 3.44452 11.586 3.44452 12C3.44452 12.414 3.10973 12.75 2.69723 12.75Z" fill="#9CA5BF"/>
<path d="M5.40973 6.17899C5.21843 6.17899 5.02712 6.106 4.88165 5.959L3.50264 4.575C3.2107 4.282 3.2107 3.807 3.50264 3.514C3.79459 3.221 4.26787 3.221 4.55981 3.514L5.93882 4.898C6.23076 5.191 6.23076 5.666 5.93882 5.959C5.79135 6.105 5.60104 6.17899 5.40973 6.17899Z" fill="#9CA5BF"/>
<path d="M14.9456 21V22.25C14.9456 23.21 14.1585 24 13.2019 24H10.711C9.87399 24 8.96727 23.36 8.96727 21.96V21H14.9456Z" fill="#9CA5BF"/>
<path d="M16.3505 6.56C14.7165 5.23 12.5643 4.71 10.4619 5.16C7.82145 5.71 5.67922 7.87 5.1312 10.52C4.57322 13.24 5.58954 15.94 7.76167 17.59C8.34954 18.03 8.75806 18.71 8.89755 19.5V19.51C8.91748 19.5 8.94737 19.5 8.9673 19.5H14.9456C14.9656 19.5 14.9755 19.5 14.9955 19.51V19.5C15.135 18.74 15.5833 18.04 16.2708 17.5C17.9547 16.16 18.9312 14.16 18.9312 12C18.9312 9.88 17.9946 7.9 16.3505 6.56ZM15.6929 12.5C15.2844 12.5 14.9456 12.16 14.9456 11.75C14.9456 10.23 13.7201 9 12.2056 9C11.797 9 11.4583 8.66 11.4583 8.25C11.4583 7.84 11.797 7.5 12.2056 7.5C14.5371 7.5 16.4402 9.41 16.4402 11.75C16.4402 12.16 16.1015 12.5 15.6929 12.5Z" fill="#9CA5BF"/>
<path d="M8.89745 19.5H8.96745C8.94745 19.5 8.91745 19.5 8.89745 19.51V19.5Z" fill="#9CA5BF"/>
<path d="M14.9958 19.5V19.51C14.9758 19.5 14.9658 19.5 14.9458 19.5H14.9958Z" fill="#9CA5BF"/>
</g>
</svg>
