<svg width="16" height="18" viewBox="0 0 16 18" fill="none" xmlns="http://www.w3.org/2000/svg">
<path opacity="0.6" d="M13.3333 12.7293C12.6578 12.7293 12.0533 13.0005 11.5911 13.4254L5.25333 9.67353C5.29778 9.4656 5.33333 9.25766 5.33333 9.04068C5.33333 8.82371 5.29778 8.61577 5.25333 8.40784L11.52 4.69211C12 5.14415 12.6311 5.42441 13.3333 5.42441C14.0406 5.42441 14.7189 5.13866 15.219 4.63002C15.719 4.12139 16 3.43153 16 2.7122C16 1.99288 15.719 1.30302 15.219 0.794387C14.7189 0.285749 14.0406 0 13.3333 0C12.6261 0 11.9478 0.285749 11.4477 0.794387C10.9476 1.30302 10.6667 1.99288 10.6667 2.7122C10.6667 2.92918 10.7022 3.13712 10.7467 3.34505L4.48 7.06077C4 6.60874 3.36889 6.32848 2.66667 6.32848C1.95942 6.32848 1.28115 6.61423 0.781049 7.12286C0.280952 7.6315 0 8.32136 0 9.04068C0 9.76 0.280952 10.4499 0.781049 10.9585C1.28115 11.4671 1.95942 11.7529 2.66667 11.7529C3.36889 11.7529 4 11.4726 4.48 11.0206L10.8089 14.7725C10.7644 14.9623 10.7378 15.1612 10.7378 15.3692C10.7378 16.8247 11.9022 18 13.3333 18C14.7644 18 15.9289 16.8247 15.9289 15.3692C15.9289 14.669 15.6554 13.9976 15.1687 13.5025C14.6819 13.0074 14.0217 12.7293 13.3333 12.7293Z" fill="#243657"/>
</svg>
