<svg width="20" height="20" viewBox="0 0 20 20" fill="none" xmlns="http://www.w3.org/2000/svg">
<g opacity="0.9" clip-path="url(#clip0_5_15)">
<path d="M9.99977 5.00011C11.3805 5.00011 12.4997 3.88084 12.4997 2.50015C12.4997 1.11947 11.3805 0.000198364 9.99977 0.000198364C8.61909 0.000198364 7.49982 1.11947 7.49982 2.50015C7.49982 3.88084 8.61909 5.00011 9.99977 5.00011Z" fill="white"/>
<path d="M13.7447 11.795L13.1772 7.37507C13.1135 6.73383 12.5785 6.25009 11.9348 6.25009H11.2498C11.0835 6.25009 10.9248 6.31634 10.8073 6.43259L9.99978 7.24007L9.1923 6.43259C9.0748 6.31634 8.91605 6.25009 8.74981 6.25009H8.06607C7.42108 6.25009 6.88609 6.73383 6.82359 7.35882L6.25485 11.7962C6.23235 11.9737 6.28735 12.1537 6.4061 12.2875C6.52485 12.4225 6.69484 12.5 6.87484 12.5H7.54983L8.07232 18.8749C8.13482 19.5149 8.67106 19.9998 9.31605 19.9998H10.6848C11.3298 19.9998 11.8648 19.5149 11.9298 18.8636L12.451 12.5H13.1247C13.3047 12.5 13.4747 12.4225 13.5935 12.2875C13.7135 12.1537 13.7685 11.9737 13.7447 11.795Z" fill="white"/>
<path d="M16.2497 5.00011C17.6304 5.00011 18.7496 3.88084 18.7496 2.50015C18.7496 1.11947 17.6304 0.000198364 16.2497 0.000198364C14.869 0.000198364 13.7497 1.11947 13.7497 2.50015C13.7497 3.88084 14.869 5.00011 16.2497 5.00011Z" fill="white"/>
<path d="M3.74989 0.000198364C2.37117 0.000198364 1.24994 1.12143 1.24994 2.50015C1.24994 3.87888 2.37117 5.00011 3.74989 5.00011C5.12737 5.00011 6.24985 3.87888 6.24985 2.50015C6.24985 1.12143 5.12737 0.000198364 3.74989 0.000198364Z" fill="white"/>
<path d="M19.9946 11.795L19.4271 7.37632C19.3633 6.73383 18.8296 6.25009 18.1846 6.25009H17.4996C17.3334 6.25009 17.1746 6.31634 17.0571 6.43259L16.2497 7.24007L15.4422 6.43259C15.3247 6.31634 15.1659 6.25009 15.0009 6.25009H14.3159C14.2384 6.25009 14.1684 6.27759 14.0947 6.29134C14.2559 6.57634 14.3822 6.88508 14.4197 7.23132L14.9859 11.6362C15.0559 12.1725 14.8884 12.7125 14.5284 13.1187C14.3584 13.3137 14.1409 13.4512 13.9084 13.5587L14.3234 17.6249C14.3872 18.2661 14.9222 18.7499 15.5672 18.7499H16.9359C17.5809 18.7499 18.1159 18.2649 18.1809 17.6136L18.7009 12.5H19.3746C19.5546 12.5 19.7246 12.4225 19.8433 12.2875C19.9633 12.1537 20.0183 11.9737 19.9946 11.795Z" fill="white"/>
<path d="M5.46735 13.1125C5.11236 12.7112 4.94736 12.1725 5.01486 11.6387L5.5836 7.20007C5.6161 6.86758 5.7386 6.56759 5.89485 6.29009C5.82485 6.27759 5.7586 6.25009 5.68485 6.25009H4.99986C4.83362 6.25009 4.67487 6.31634 4.55737 6.43259L3.74988 7.24007L2.9424 6.43259C2.8249 6.31634 2.66615 6.25009 2.50116 6.25009H1.81613C1.17114 6.25009 0.63615 6.73383 0.573651 7.35882L0.00491148 11.7962C-0.0175881 11.9737 0.0374109 12.1537 0.156159 12.2875C0.274907 12.4225 0.446154 12.5 0.624901 12.5H1.29989L1.82238 17.6249C1.88488 18.2649 2.42112 18.7499 3.06611 18.7499H4.43483C5.07982 18.7499 5.61481 18.2649 5.67981 17.6136L6.0948 13.5575C5.8611 13.4487 5.64235 13.31 5.46735 13.1125Z" fill="white"/>
</g>
<defs>
<clipPath id="clip0_5_15">
<rect width="20" height="20" fill="white"/>
</clipPath>
</defs>
</svg>
