<svg width="24" height="25" viewBox="0 0 24 25" fill="none" xmlns="http://www.w3.org/2000/svg">
<g opacity="0.8">
<path d="M11.9997 3.47339C11.5857 3.47339 11.2497 3.1358 11.2497 2.71984V0.753557C11.2497 0.337593 11.5857 0 11.9997 0C12.4137 0 12.7497 0.337593 12.7497 0.753557V2.71984C12.7497 3.1358 12.4137 3.47339 11.9997 3.47339Z" fill="#838FAF"/>
<path d="M18.5711 6.20833C18.3791 6.20833 18.1871 6.13499 18.0411 5.98729C17.7481 5.69289 17.7481 5.21563 18.0411 4.92123L19.4251 3.53064C19.7181 3.23624 20.1931 3.23624 20.4862 3.53064C20.7792 3.82503 20.7792 4.30229 20.4862 4.59669L19.1021 5.98729C18.9551 6.13398 18.7631 6.20833 18.5711 6.20833Z" fill="#838FAF"/>
<path d="M23.2502 12.8106H21.2932C20.8791 12.8106 20.5431 12.473 20.5431 12.057C20.5431 11.641 20.8791 11.3034 21.2932 11.3034H23.2502C23.6642 11.3034 24.0002 11.641 24.0002 12.057C24.0002 12.473 23.6642 12.8106 23.2502 12.8106Z" fill="#838FAF"/>
<path d="M19.9551 20.8034C19.7631 20.8034 19.5711 20.7301 19.4251 20.5824L18.0411 19.1918C17.7481 18.8974 17.7481 18.4201 18.0411 18.1257C18.3341 17.8313 18.8091 17.8313 19.1021 18.1257L20.4862 19.5163C20.7792 19.8107 20.7792 20.288 20.4862 20.5824C20.3392 20.7301 20.1471 20.8034 19.9551 20.8034Z" fill="#838FAF"/>
<path d="M4.04489 20.8034C3.85289 20.8034 3.66089 20.7301 3.51489 20.5824C3.22189 20.288 3.22189 19.8107 3.51489 19.5163L4.8989 18.1257C5.19191 17.8313 5.66691 17.8313 5.95991 18.1257C6.25292 18.4201 6.25292 18.8974 5.95991 19.1918L4.5759 20.5824C4.4289 20.7301 4.2369 20.8034 4.04489 20.8034Z" fill="#838FAF"/>
<path d="M2.70704 12.8106H0.750012C0.336005 12.8106 0 12.473 0 12.057C0 11.641 0.336005 11.3034 0.750012 11.3034H2.70704C3.12105 11.3034 3.45705 11.641 3.45705 12.057C3.45705 12.473 3.12105 12.8106 2.70704 12.8106Z" fill="#838FAF"/>
<path d="M5.42891 6.20833C5.23691 6.20833 5.0449 6.13499 4.8989 5.98729L3.51489 4.59669C3.22189 4.30229 3.22189 3.82503 3.51489 3.53064C3.80789 3.23624 4.2829 3.23624 4.5759 3.53064L5.95991 4.92123C6.25292 5.21563 6.25292 5.69289 5.95991 5.98729C5.81191 6.13398 5.62091 6.20833 5.42891 6.20833Z" fill="#838FAF"/>
<path d="M15.0004 21.0998V22.3558C15.0004 23.3204 14.2104 24.1142 13.2504 24.1142H10.7504C9.91038 24.1142 9.00037 23.4711 9.00037 22.0644V21.0998H15.0004Z" fill="#838FAF"/>
<path d="M16.41 6.5912C14.77 5.25487 12.61 4.7324 10.4999 5.18454C7.84989 5.73716 5.69986 7.90743 5.14986 10.57C4.58985 13.303 5.60986 16.0158 7.78989 17.6737C8.3799 18.1158 8.7899 18.799 8.92991 19.5927V19.6028C8.94991 19.5927 8.97991 19.5927 8.99991 19.5927H15C15.02 19.5927 15.03 19.5927 15.05 19.6028V19.5927C15.19 18.8291 15.64 18.1258 16.33 17.5832C18.02 16.2369 19 14.2273 19 12.0571C19 9.92699 18.06 7.93757 16.41 6.5912ZM15.75 12.5594C15.34 12.5594 15 12.2178 15 11.8059C15 10.2787 13.77 9.0428 12.2499 9.0428C11.8399 9.0428 11.4999 8.70119 11.4999 8.28924C11.4999 7.87729 11.8399 7.53567 12.2499 7.53567C14.59 7.53567 16.5 9.45475 16.5 11.8059C16.5 12.2178 16.16 12.5594 15.75 12.5594Z" fill="#838FAF"/>
<path d="M8.9298 19.5927H9.00005C8.97998 19.5927 8.94987 19.5927 8.9298 19.6027V19.5927Z" fill="#838FAF"/>
<path d="M15.0508 19.5927V19.6027C15.0307 19.5927 15.0207 19.5927 15.0006 19.5927H15.0508Z" fill="#838FAF"/>
</g>
</svg>
