<svg width="20" height="20" viewBox="0 0 20 20" fill="none" xmlns="http://www.w3.org/2000/svg">
<g clip-path="url(#clip0_88_329)">
<path d="M17.1131 10.6765H15.5664C15.7241 11.1082 15.8102 11.574 15.8102 12.0595V17.9052C15.8102 18.1076 15.775 18.3019 15.7109 18.4826H18.2679C19.2231 18.4826 20.0002 17.7055 20.0002 16.7504V13.5636C20.0002 11.9717 18.7051 10.6765 17.1131 10.6765Z" fill="#31A05F"/>
<path d="M4.19005 12.0596C4.19005 11.574 4.27618 11.1082 4.43384 10.6766H2.88711C1.29516 10.6766 0 11.9718 0 13.5637V16.7505C0 17.7056 0.777072 18.4828 1.73227 18.4828H4.28938C4.22528 18.302 4.19005 18.1077 4.19005 17.9053V12.0596Z" fill="#31A05F"/>
<path d="M11.7679 9.17252H8.23184C6.63988 9.17252 5.34473 10.4677 5.34473 12.0596V17.9053C5.34473 18.2242 5.60324 18.4828 5.92215 18.4828H14.0775C14.3964 18.4828 14.655 18.2242 14.655 17.9053V12.0596C14.655 10.4677 13.3598 9.17252 11.7679 9.17252Z" fill="#31A05F"/>
<path d="M9.99994 1.51718C8.08541 1.51718 6.52783 3.07476 6.52783 4.98934C6.52783 6.28797 7.24459 7.42215 8.3031 8.01762C8.80517 8.30005 9.384 8.46145 9.99994 8.46145C10.6159 8.46145 11.1947 8.30005 11.6968 8.01762C12.7553 7.42215 13.472 6.28793 13.472 4.98934C13.472 3.0748 11.9145 1.51718 9.99994 1.51718Z" fill="#31A05F"/>
<path d="M3.90284 4.75345C2.471 4.75345 1.30615 5.91829 1.30615 7.35013C1.30615 8.78197 2.471 9.94682 3.90284 9.94682C4.26604 9.94682 4.6119 9.87158 4.92608 9.73635C5.46929 9.50248 5.91718 9.0885 6.19433 8.56994C6.38886 8.20599 6.49952 7.7908 6.49952 7.35013C6.49952 5.91833 5.33468 4.75345 3.90284 4.75345Z" fill="#31A05F"/>
<path d="M16.0972 4.75345C14.6653 4.75345 13.5005 5.91829 13.5005 7.35013C13.5005 7.79084 13.6112 8.20603 13.8057 8.56994C14.0828 9.08853 14.5307 9.50252 15.0739 9.73635C15.3881 9.87158 15.734 9.94682 16.0972 9.94682C17.529 9.94682 18.6939 8.78197 18.6939 7.35013C18.6939 5.91829 17.529 4.75345 16.0972 4.75345Z" fill="#31A05F"/>
</g>
<defs>
<clipPath id="clip0_88_329">
<rect width="20" height="20" fill="white"/>
</clipPath>
</defs>
</svg>
