<svg width="414" height="106" viewBox="0 0 414 106" fill="none" xmlns="http://www.w3.org/2000/svg">
<rect width="414" height="105" fill="white"/>
<rect y="30" width="414" height="75" fill="white"/>
<rect opacity="0.2" y="105" width="414" height="0.6" fill="#243657"/>
<path d="M175.963 77.2524C171.258 74.7753 166.211 73.4567 161.185 73.1987L154.53 73.1991C152.771 73.1981 151.349 71.7681 151.349 70.0177L151.349 64.1612C151.349 62.4075 152.776 60.9802 154.53 60.9806L160.044 60.9802C160.363 60.9802 160.622 61.239 160.622 61.5584L160.622 69.062C160.622 69.3868 160.89 69.6493 161.217 69.6399C161.534 69.6307 161.778 69.3548 161.778 69.038L161.778 61.4802C161.778 61.1799 162.008 60.9294 162.307 60.9046C167.087 60.5088 171.716 59.1618 175.963 56.9267C177.573 56.0789 179.51 57.245 179.511 59.0683L179.51 75.1106C179.512 76.9308 177.575 78.1017 175.963 77.2524ZM181.692 69.3871C182.799 68.0637 182.789 66.0895 181.686 64.7792C181.34 64.3674 180.667 64.6148 180.667 65.153C180.666 66.4344 180.666 67.7202 180.667 69.0198C180.667 69.5627 181.344 69.8035 181.692 69.3871ZM159.907 80.4298L159.912 74.9338C159.913 74.6144 159.654 74.3552 159.334 74.3551C157.618 74.3546 157.552 74.3553 155.262 74.3551C154.943 74.3551 154.684 74.6139 154.684 74.9333L154.684 80.4291C154.684 81.133 155.067 81.7368 155.626 82.0594C156.168 82.3723 156.481 82.3086 158.028 82.3088C159.064 82.3088 159.907 81.4655 159.907 80.4298ZM187.546 67.6909C187.865 67.6909 188.124 67.4321 188.124 67.1128C188.124 66.7936 187.865 66.5347 187.546 66.5347L185.818 66.5347C185.227 66.5347 185.021 67.3202 185.53 67.6139C185.708 67.7166 185.675 67.6909 187.546 67.6909ZM184.44 62.4386L185.436 61.4422C185.662 61.2164 185.662 60.8504 185.436 60.6246C185.21 60.3988 184.844 60.3988 184.619 60.6246L183.622 61.621C183.354 61.8893 183.412 62.3404 183.742 62.5308C183.963 62.6583 184.251 62.6276 184.44 62.4386ZM185.436 73.6009C185.662 73.3752 185.662 73.0091 185.436 72.7834L184.44 71.7869C184.214 71.5613 183.848 71.5612 183.622 71.7869C183.396 72.0126 183.397 72.3787 183.622 72.6045C184.712 73.6943 184.648 73.641 184.739 73.6931C184.96 73.8207 185.247 73.79 185.436 73.6009Z" fill="#31A05F"/>
<path d="M197.094 67.2108C197.094 71.53 200.235 74.8985 204.678 74.8985C209.121 74.8985 212.263 71.53 212.263 67.2108C212.263 63.0156 209.121 59.7297 204.678 59.7297C200.235 59.7297 197.094 63.0156 197.094 67.2108ZM199.842 67.2108C199.842 64.3589 201.868 62.1683 204.678 62.1683C207.489 62.1683 209.514 64.3589 209.514 67.2108C209.514 70.1867 207.489 72.4599 204.678 72.4599C201.868 72.4599 199.842 70.1867 199.842 67.2108Z" fill="#31A05F"/>
<path d="M214.835 69.3807C214.835 72.6666 217.191 74.8985 220.745 74.8985C224.279 74.8985 226.635 72.6666 226.635 69.3807V60.8457C226.635 60.2877 226.346 59.9777 225.788 59.9777H224.837C224.279 59.9777 223.99 60.2877 223.99 60.8457V69.36C223.99 71.344 222.688 72.4599 220.724 72.4599C218.761 72.4599 217.48 71.344 217.48 69.36V60.8457C217.48 60.2877 217.19 59.9777 216.612 59.9777H215.682C215.124 59.9777 214.835 60.2877 214.835 60.8457V69.3807Z" fill="#31A05F"/>
<path d="M230.06 73.7826C230.06 74.3612 230.35 74.6505 230.908 74.6505H231.858C232.416 74.6505 232.705 74.3612 232.705 73.7826V68.2441H234.627L237.872 74.0512C238.099 74.4645 238.409 74.6505 238.885 74.6505H240.021C240.703 74.6505 240.972 74.2165 240.621 73.6172L236.797 67.0041V66.9628L240.352 61.011C240.683 60.4324 240.435 59.9777 239.753 59.9777H238.74C238.265 59.9777 237.955 60.1637 237.727 60.577L234.627 65.9502H232.705V60.8457C232.705 60.2877 232.416 59.9777 231.858 59.9777H230.908C230.35 59.9777 230.06 60.2877 230.06 60.8457V73.7826Z" fill="#31A05F"/>
<path d="M242.438 73.7826C242.438 74.3612 242.83 74.6505 243.368 74.6505H251.427C252.006 74.6505 252.295 74.3612 252.295 73.7826V73.2039C252.295 72.6459 252.006 72.3566 251.427 72.3566H245.372C245.496 69.5874 252.068 68.7814 252.068 64.0696C252.068 61.3003 249.857 59.7297 247.294 59.7297C244.897 59.7297 243.533 61.0937 242.892 61.941C242.582 62.375 242.686 62.7676 243.12 63.0983L243.678 63.5322C244.091 63.8836 244.504 63.7389 244.897 63.3463C245.269 62.8916 246.013 62.251 247.067 62.251C248.307 62.251 249.299 63.0156 249.299 64.2969C249.299 67.2108 242.438 68.0581 242.438 73.3486V73.7826Z" fill="#31A05F"/>
<path d="M254.597 73.4726C255.32 74.0099 256.788 74.8985 258.834 74.8985C262.12 74.8985 264 72.5839 264 70.0834C264 67.5414 262.037 66.0948 259.991 65.8055L263.194 62.1063C263.484 61.7963 263.587 61.4863 263.587 61.0523V60.825C263.587 60.267 263.298 59.9777 262.719 59.9777H255.486C254.928 59.9777 254.638 60.2877 254.638 60.8457V61.4243C254.638 61.9823 254.928 62.2716 255.486 62.2716H259.02C259.867 62.2716 260.322 62.2096 260.322 62.2096V62.251C260.322 62.251 259.826 62.6849 259.268 63.3669L257.015 66.0328C256.705 66.3841 256.643 66.7768 256.829 67.1488L256.912 67.3141C257.118 67.7481 257.387 67.9134 257.862 67.9134H258.172C259.888 67.9134 261.314 68.6367 261.314 70.1867C261.314 71.4473 260.198 72.3773 258.668 72.3773C257.49 72.3773 256.56 71.8193 256.023 71.4473C255.548 71.1373 255.155 71.158 254.845 71.6333L254.432 72.2739C254.122 72.7079 254.163 73.1419 254.597 73.4726Z" fill="#31A05F"/>
</svg>
