<svg width="200" height="200" viewBox="0 0 200 200" fill="none" xmlns="http://www.w3.org/2000/svg">
<g clip-path="url(#clip0_91_16)">
<path d="M160.059 116.129H39.9413L27.0381 141.935H38.7096V200H161.29V141.935H172.962L160.059 116.129ZM156.07 122.581L162.522 135.484H111.671L105.22 122.581H156.07ZM43.9295 122.581H94.78L88.3284 135.484H37.4779L43.9295 122.581ZM154.839 193.548H103.226V170.968H96.7741V193.548H45.1612V141.935H92.3166L96.7741 133.019V161.29H103.226V133.019L107.683 141.935H154.839V193.548Z" fill="#31A05F"/>
<path d="M51.6128 167.742H70.9676V174.194H51.6128V167.742Z" fill="#31A05F"/>
<path d="M51.6128 180.645H70.9676V187.097H51.6128V180.645Z" fill="#31A05F"/>
<path d="M77.4194 180.645H83.871V187.097H77.4194V180.645Z" fill="#31A05F"/>
<path d="M85.1026 52.465L99.9999 48.6675L114.897 52.4619L116.064 36.4652L123.978 22.9476L109.981 16.8898L99.9999 4.54889L90.0154 16.8898L76.019 22.9476L83.9323 36.4652L85.1026 52.465ZM94.035 22.1774L99.9999 14.8059L105.965 22.1806L114.732 25.9781L109.742 34.5026L109.025 44.3123L99.9999 42.0127L90.9746 44.3092L90.258 34.4994L85.268 25.9734L94.035 22.1774Z" fill="#31A05F"/>
<path d="M35.4193 59.049L40.1068 51.0459L31.8029 47.4483L25.8064 40.0328L19.81 47.4452L11.5061 51.0427L16.1936 59.0458L16.8866 68.5909L25.8064 66.3228L34.7294 68.5941L35.4193 59.049ZM29.0968 57.0801L28.8511 60.4382L25.8064 59.6648L22.7649 60.4382L22.5161 57.0801L20.7519 54.0638L23.8265 52.7328L25.8064 50.2898L27.7832 52.7359L30.8578 54.0685L29.0968 57.0801Z" fill="#31A05F"/>
<path d="M183.806 59.049L188.494 51.0459L180.19 47.4483L174.193 40.0328L168.197 47.4452L159.893 51.0427L164.581 59.0458L165.274 68.5909L174.193 66.3228L183.116 68.5941L183.806 59.049ZM177.484 57.0801L177.238 60.4382L174.193 59.6648L171.152 60.4382L170.906 57.0801L169.142 54.0638L172.217 52.7328L174.193 50.2898L176.17 52.7359L179.245 54.0685L177.484 57.0801Z" fill="#31A05F"/>
<path d="M40.1447 76.8775C46.2876 80.9744 51.7453 85.9737 56.3556 91.7417L69.1329 107.707L66.4898 86.5707C65.11 75.5355 59.216 65.3777 50.3198 58.7072L47.2295 56.3902L37.7742 75.2961L40.1447 76.8775ZM49.4425 66.3936C54.8971 71.5553 58.597 78.4258 59.865 85.8587C55.7902 81.0736 51.1673 76.8098 46.0718 73.1351L49.4425 66.3936Z" fill="#31A05F"/>
<path d="M133.51 86.5707L130.867 107.707L143.644 91.7386C148.258 85.9706 153.712 80.9712 159.855 76.8744L162.223 75.293L152.767 56.387L149.677 58.7103C140.784 65.3808 134.887 75.5355 133.51 86.5707ZM153.928 73.1351C148.833 76.8098 144.207 81.0704 140.135 85.8587C141.406 78.4258 145.103 71.5552 150.558 66.3936L153.928 73.1351Z" fill="#31A05F"/>
<path d="M112.903 109.677H119.355V96.1615C119.355 80.6672 124.816 65.584 134.739 53.6779L129.781 49.5479C118.897 62.6103 112.903 79.1646 112.903 96.1615V109.677Z" fill="#31A05F"/>
<path d="M135.484 38.7097H141.936V45.1613H135.484V38.7097Z" fill="#31A05F"/>
<path d="M145.161 25.8065H151.613V32.2581H145.161V25.8065Z" fill="#31A05F"/>
<path d="M80.645 109.677H87.0966V96.1615C87.0966 79.1614 81.1034 62.6103 70.2226 49.5479L65.2642 53.6779C75.1841 65.584 80.645 80.6672 80.645 96.1615V109.677Z" fill="#31A05F"/>
<path d="M58.0645 38.7097H64.5161V45.1613H58.0645V38.7097Z" fill="#31A05F"/>
<path d="M48.3872 25.8065H54.8388V32.2581H48.3872V25.8065Z" fill="#31A05F"/>
<path d="M96.7744 54.8387H103.226V61.2903H96.7744V54.8387Z" fill="#31A05F"/>
<path d="M96.7744 67.7419H103.226V109.677H96.7744V67.7419Z" fill="#31A05F"/>
<path d="M187.097 87.0968H193.548V93.5484H187.097V87.0968Z" fill="#31A05F"/>
<path d="M187.097 100H193.548V106.452H187.097V100Z" fill="#31A05F"/>
<path d="M193.548 93.5484H200V100H193.548V93.5484Z" fill="#31A05F"/>
<path d="M180.645 93.5484H187.097V100H180.645V93.5484Z" fill="#31A05F"/>
<path d="M177.419 0H183.871V6.45161H177.419V0Z" fill="#31A05F"/>
<path d="M177.419 12.9032H183.871V19.3548H177.419V12.9032Z" fill="#31A05F"/>
<path d="M183.871 6.4516H190.323V12.9032H183.871V6.4516Z" fill="#31A05F"/>
<path d="M170.968 6.4516H177.419V12.9032H170.968V6.4516Z" fill="#31A05F"/>
<path d="M6.45166 100H12.9033V106.452H6.45166V100Z" fill="#31A05F"/>
<path d="M6.45166 112.903H12.9033V119.355H6.45166V112.903Z" fill="#31A05F"/>
<path d="M12.9033 106.452H19.3549V112.903H12.9033V106.452Z" fill="#31A05F"/>
<path d="M0 106.452H6.45161V112.903H0V106.452Z" fill="#31A05F"/>
<path d="M6.45166 0H12.9033V6.45161H6.45166V0Z" fill="#31A05F"/>
<path d="M6.45166 12.9032H12.9033V19.3548H6.45166V12.9032Z" fill="#31A05F"/>
<path d="M12.9033 6.4516H19.3549V12.9032H12.9033V6.4516Z" fill="#31A05F"/>
<path d="M0 6.4516H6.45161V12.9032H0V6.4516Z" fill="#31A05F"/>
</g>
<defs>
<clipPath id="clip0_91_16">
<rect width="200" height="200" fill="white"/>
</clipPath>
</defs>
</svg>
