<svg width="22" height="22" viewBox="0 0 22 22" fill="none" xmlns="http://www.w3.org/2000/svg">
<g opacity="0.9">
<path d="M10.9645 3.70358C11.9872 3.70358 12.8162 2.8745 12.8162 1.85179C12.8162 0.829074 11.9872 0 10.9645 0C9.94174 0 9.11267 0.829074 9.11267 1.85179C9.11267 2.8745 9.94174 3.70358 10.9645 3.70358Z" fill="white"/>
<path d="M11.6095 4.58652C11.1481 4.49284 10.6464 4.49695 10.1932 4.60378C7.1146 4.96452 6.11496 8.52799 6.39723 11.2451C6.51966 12.4197 8.37145 12.4321 8.24778 11.2451C8.14506 10.2549 8.18903 8.76054 8.71535 7.69844C8.71535 8.9894 8.71535 10.2803 8.71535 11.5709C8.71535 11.6165 8.71987 11.6592 8.72192 11.7032C8.72069 11.7241 8.71576 11.7418 8.71576 11.7632C8.71576 14.8361 8.71042 17.9077 8.58346 20.9782C8.52717 22.3431 10.6436 22.3377 10.6994 20.9782C10.7989 18.5717 10.8239 16.164 10.8297 13.7559C10.9299 13.7625 11.0302 13.7625 11.1304 13.7567C11.1366 16.1648 11.1608 18.5725 11.2595 20.9782C11.3157 22.3377 13.4321 22.3431 13.3754 20.9782C13.2485 17.9077 13.244 14.8361 13.244 11.7632C13.244 11.6679 13.2312 11.5812 13.2119 11.4978C13.209 10.1637 13.1581 8.82833 13.1737 7.49506C13.804 8.56209 13.8615 10.1895 13.7522 11.2442C13.6281 12.4304 15.4803 12.4185 15.6028 11.2442C15.8916 8.47088 14.8439 4.81496 11.6095 4.58652Z" fill="white"/>
</g>
</svg>
