<svg width="33" height="33" viewBox="0 0 33 33" fill="none" xmlns="http://www.w3.org/2000/svg">
<g opacity="0.8" clip-path="url(#clip0_1150_779)">
<path d="M22.1805 21.7668C18.9156 20.0416 15.4132 19.1232 11.9252 18.9435L7.30701 18.9438C6.08611 18.9431 5.09935 17.9472 5.09978 16.728L5.09928 12.6491C5.09954 11.4277 6.09003 10.4337 7.30707 10.4339L11.1333 10.4337C11.3548 10.4337 11.5345 10.6139 11.5345 10.8363L11.5345 16.0624C11.5345 16.2887 11.7204 16.4715 11.9475 16.4649C12.1673 16.4585 12.3368 16.2663 12.3368 16.0457L12.3368 10.7819C12.3368 10.5728 12.4963 10.3982 12.704 10.381C16.0212 10.1053 19.2331 9.16716 22.1808 7.61051C23.298 7.02001 24.6424 7.83214 24.6426 9.10203L24.6421 20.2751C24.6432 21.5429 23.2996 22.3583 22.1805 21.7668ZM26.1565 16.2888C26.9247 15.3672 26.9175 13.9922 26.1524 13.0796C25.9119 12.7927 25.4449 12.965 25.4448 13.3399C25.4447 14.2323 25.4447 15.1279 25.4448 16.0331C25.4449 16.4112 25.9148 16.5789 26.1565 16.2888ZM11.0385 23.9798L11.0422 20.152C11.0424 19.9295 10.8626 19.749 10.6409 19.7489C9.44967 19.7486 9.40433 19.7491 7.81518 19.7489C7.59358 19.7489 7.41366 19.9292 7.41369 20.1516L7.41387 23.9793C7.41411 24.4696 7.67987 24.8901 8.06761 25.1148C8.44371 25.3327 8.66102 25.2883 9.73441 25.2885C10.4536 25.2885 11.0387 24.7012 11.0385 23.9798ZM30.2185 15.1075C30.4401 15.1075 30.6198 14.9272 30.6197 14.7048C30.6197 14.4825 30.4402 14.3022 30.2185 14.3022L29.0199 14.3022C28.6097 14.3022 28.4666 14.8493 28.8196 15.0538C28.9432 15.1254 28.9205 15.1075 30.2185 15.1075ZM28.0632 11.4494L28.7548 10.7554C28.9115 10.5982 28.9114 10.3432 28.7548 10.186C28.5979 10.0287 28.3441 10.0287 28.1874 10.186L27.4958 10.88C27.3097 11.0668 27.3502 11.381 27.5791 11.5136C27.7325 11.6024 27.932 11.581 28.0632 11.4494ZM28.7548 19.2237C28.9115 19.0664 28.9114 18.8115 28.7548 18.6543L28.0632 17.9602C27.9065 17.8031 27.6525 17.803 27.4959 17.9602C27.3392 18.1174 27.3392 18.3724 27.4959 18.5297C28.2522 19.2887 28.208 19.2516 28.2706 19.2879C28.424 19.3768 28.6236 19.3553 28.7548 19.2237Z" fill="#838FAF"/>
</g>
<defs>
<clipPath id="clip0_1150_779">
<rect width="23.935" height="23.9784" fill="white" transform="matrix(0.870925 0.504651 -0.50192 0.872501 12.0352 0)"/>
</clipPath>
</defs>
</svg>
