<svg width="334" height="130" viewBox="0 0 334 130" fill="none" xmlns="http://www.w3.org/2000/svg">
<path d="M0.904583 126.786C2.3489 127.926 5.73164 129.484 9.53246 129.484C15.6518 129.484 19.0725 125.569 19.0725 121.008C19.0725 112.418 7.06192 113.369 7.06192 109.416C7.06192 108.352 7.93611 107.515 10.0266 107.515C11.813 107.515 13.0672 108.162 14.3215 108.77C15.3857 109.302 16.412 109.53 17.1721 108.048L18.0843 106.261C18.6545 105.159 18.5404 104.209 17.4382 103.411C16.1459 102.498 13.2573 101.396 10.1026 101.396C4.59139 101.396 0.410475 104.703 0.410475 109.72C0.410475 118.234 12.4211 117.626 12.4211 121.464C12.4211 122.529 11.5089 123.365 9.53246 123.365C7.17595 123.365 5.46558 122.149 4.59139 121.693C3.33711 121.008 2.46292 121.084 1.70276 122.187L0.5245 123.897C-0.463715 125.303 0.106409 126.139 0.904583 126.786Z" fill="#31A05F"/>
<path d="M22.2038 126.938C22.2038 128.306 22.9259 129.028 24.2942 129.028H31.8579C40.4097 129.028 45.8829 123.935 45.8829 115.383C45.8829 106.831 40.4097 101.852 31.8579 101.852H24.2942C22.9259 101.852 22.2038 102.574 22.2038 103.943V126.938ZM28.8552 123.327V107.553H31.5918C36.0768 107.553 39.0034 110.214 39.0034 115.383C39.0034 120.59 36.1908 123.327 31.5918 123.327H28.8552Z" fill="#31A05F"/>
<path d="M49.0219 126.938C49.0219 128.306 49.744 129.028 51.1123 129.028H53.5829C54.9512 129.028 55.6733 128.306 55.6733 126.938V103.943C55.6733 102.574 54.9512 101.852 53.5829 101.852H51.1123C49.744 101.852 49.0219 102.574 49.0219 103.943V126.938Z" fill="#31A05F"/>
<path d="M59.9104 119.032C59.9104 125.151 64.3953 129.484 71.3128 129.484C78.1543 129.484 82.6393 125.151 82.6393 119.032V103.943C82.6393 102.574 81.9172 101.852 80.5489 101.852H78.0783C76.71 101.852 75.9879 102.574 75.9879 103.943V119.032C75.9879 121.883 74.1255 123.403 71.2748 123.403C68.4242 123.403 66.5618 121.883 66.5618 119.032V103.943C66.5618 102.574 65.8396 101.852 64.4713 101.852H62.0008C60.6325 101.852 59.9104 102.574 59.9104 103.943V119.032Z" fill="#31A05F"/>
<path d="M95.588 126.938C95.588 128.306 96.3101 129.028 97.6784 129.028H100.149C101.517 129.028 102.239 128.306 102.239 126.938V118.956H108.435C109.803 118.956 110.525 118.234 110.525 116.865V115.345C110.525 113.977 109.803 113.255 108.435 113.255H102.239V107.553H110.145C111.513 107.553 112.236 106.831 112.236 105.463V103.943C112.236 102.574 111.513 101.852 110.145 101.852H97.6784C96.3101 101.852 95.588 102.574 95.588 103.943V126.938Z" fill="#31A05F"/>
<path d="M113.131 115.269C113.131 123.251 118.908 129.484 127.346 129.484C135.784 129.484 141.561 123.251 141.561 115.269C141.561 107.477 135.784 101.396 127.346 101.396C118.908 101.396 113.131 107.477 113.131 115.269ZM120.01 115.269C120.01 110.822 123.051 107.477 127.346 107.477C131.641 107.477 134.682 110.822 134.682 115.269C134.682 119.906 131.641 123.403 127.346 123.403C123.051 123.403 120.01 119.906 120.01 115.269Z" fill="#31A05F"/>
<path d="M144.356 119.032C144.356 125.151 148.841 129.484 155.758 129.484C162.6 129.484 167.084 125.151 167.084 119.032V103.943C167.084 102.574 166.362 101.852 164.994 101.852H162.523C161.155 101.852 160.433 102.574 160.433 103.943V119.032C160.433 121.883 158.571 123.403 155.72 123.403C152.869 123.403 151.007 121.883 151.007 119.032V103.943C151.007 102.574 150.285 101.852 148.917 101.852H146.446C145.078 101.852 144.356 102.574 144.356 103.943V119.032Z" fill="#31A05F"/>
<path d="M171.291 126.938C171.291 128.306 172.013 129.028 173.382 129.028H175.852C177.221 129.028 177.943 128.306 177.943 126.938V116.371C177.943 114.661 177.639 111.734 177.639 111.734H177.715C177.715 111.734 178.931 114.585 179.995 116.371L186.723 127.622C187.293 128.61 188.053 129.028 189.193 129.028H192.158C193.526 129.028 194.248 128.306 194.248 126.938V103.943C194.248 102.574 193.526 101.852 192.158 101.852H189.687C188.319 101.852 187.597 102.574 187.597 103.943V114.547C187.597 116.257 187.901 119.184 187.901 119.184H187.825C187.825 119.184 186.609 116.333 185.544 114.547L178.855 103.258C178.285 102.27 177.525 101.852 176.346 101.852H173.382C172.013 101.852 171.291 102.574 171.291 103.943V126.938Z" fill="#31A05F"/>
<path d="M198.74 126.938C198.74 128.306 199.463 129.028 200.831 129.028H208.394C216.946 129.028 222.42 123.935 222.42 115.383C222.42 106.831 216.946 101.852 208.394 101.852H200.831C199.463 101.852 198.74 102.574 198.74 103.943V126.938ZM205.392 123.327V107.553H208.128C212.613 107.553 215.54 110.214 215.54 115.383C215.54 120.59 212.727 123.327 208.128 123.327H205.392Z" fill="#31A05F"/>
<path d="M222.91 126.634C222.416 128.078 223.1 129.028 224.621 129.028H227.129C228.346 129.028 229.106 128.458 229.448 127.28L230.588 123.327H239.064L240.204 127.28C240.584 128.458 241.344 129.028 242.561 129.028H245.069C246.59 129.028 247.274 128.078 246.78 126.634L238.912 103.563C238.532 102.384 237.772 101.852 236.555 101.852H233.135C231.918 101.852 231.158 102.384 230.778 103.563L222.91 126.634ZM232.146 118.006L233.705 112.723C234.199 111.012 234.807 108.048 234.807 108.048H234.883C234.883 108.048 235.491 111.012 235.985 112.723L237.506 118.006H232.146Z" fill="#31A05F"/>
<path d="M252.811 126.938C252.811 128.306 253.533 129.028 254.901 129.028H257.372C258.74 129.028 259.462 128.306 259.462 126.938V107.553H265.619C266.988 107.553 267.71 106.831 267.71 105.463V103.943C267.71 102.574 266.988 101.852 265.619 101.852H246.653C245.285 101.852 244.563 102.574 244.563 103.943V105.463C244.563 106.831 245.285 107.553 246.653 107.553H252.811V126.938Z" fill="#31A05F"/>
<path d="M269.804 126.938C269.804 128.306 270.526 129.028 271.894 129.028H274.365C275.733 129.028 276.455 128.306 276.455 126.938V103.943C276.455 102.574 275.733 101.852 274.365 101.852H271.894C270.526 101.852 269.804 102.574 269.804 103.943V126.938Z" fill="#31A05F"/>
<path d="M279.552 115.269C279.552 123.251 285.329 129.484 293.767 129.484C302.205 129.484 307.982 123.251 307.982 115.269C307.982 107.477 302.205 101.396 293.767 101.396C285.329 101.396 279.552 107.477 279.552 115.269ZM286.432 115.269C286.432 110.822 289.472 107.477 293.767 107.477C298.062 107.477 301.103 110.822 301.103 115.269C301.103 119.906 298.062 123.403 293.767 123.403C289.472 123.403 286.432 119.906 286.432 115.269Z" fill="#31A05F"/>
<path d="M311.043 126.938C311.043 128.306 311.765 129.028 313.133 129.028H315.604C316.972 129.028 317.694 128.306 317.694 126.938V116.371C317.694 114.661 317.39 111.734 317.39 111.734H317.466C317.466 111.734 318.683 114.585 319.747 116.371L326.474 127.622C327.044 128.61 327.805 129.028 328.945 129.028H331.909C333.278 129.028 334 128.306 334 126.938V103.943C334 102.574 333.278 101.852 331.909 101.852H329.439C328.071 101.852 327.348 102.574 327.348 103.943V114.547C327.348 116.257 327.653 119.184 327.653 119.184H327.577C327.577 119.184 326.36 116.333 325.296 114.547L318.607 103.258C318.036 102.27 317.276 101.852 316.098 101.852H313.133C311.765 101.852 311.043 102.574 311.043 103.943V126.938Z" fill="#31A05F"/>
<g clip-path="url(#clip0_1151_10)">
<path d="M185.868 66.5542C175.849 61.2791 165.101 58.471 154.398 57.9216L140.226 57.9224C136.479 57.9203 133.451 54.875 133.452 51.1473L133.451 38.6756C133.452 34.9408 136.491 31.9014 140.226 31.9022L151.967 31.9014C152.647 31.9014 153.199 32.4525 153.199 33.1326L153.199 49.1121C153.199 49.8039 153.769 50.3628 154.466 50.3427C155.141 50.3233 155.661 49.7356 155.661 49.061L155.661 32.9661C155.661 32.3267 156.15 31.7931 156.788 31.7404C166.967 30.8974 176.824 28.0289 185.869 23.2692C189.298 21.4637 193.423 23.9469 193.424 27.8298L193.422 61.9931C193.426 65.8693 189.303 68.3627 185.868 66.5542ZM198.07 49.8044C200.427 46.9863 200.405 42.782 198.057 39.9917C197.319 39.1146 195.886 39.6414 195.886 40.7876C195.885 43.5164 195.885 46.2546 195.886 49.0223C195.886 50.1785 197.328 50.6913 198.07 49.8044ZM151.677 73.3207L151.688 61.6165C151.689 60.9363 151.137 60.3843 150.457 60.3841C146.801 60.383 146.662 60.3846 141.785 60.3842C141.105 60.3841 140.553 60.9354 140.553 61.6154L140.554 73.3191C140.554 74.8183 141.37 76.104 142.56 76.791C143.714 77.4574 144.381 77.3217 147.675 77.3221C149.882 77.3222 151.677 75.5264 151.677 73.3207ZM210.535 46.1922C211.215 46.1922 211.766 45.641 211.766 44.9611C211.766 44.2814 211.215 43.7301 210.535 43.73L206.857 43.7301C205.598 43.7301 205.159 45.4027 206.242 46.0282C206.621 46.247 206.552 46.1922 210.535 46.1922ZM203.921 35.0071L206.043 32.8852C206.524 32.4044 206.524 31.625 206.043 31.1442C205.562 30.6633 204.783 30.6633 204.302 31.1441L202.18 33.266C201.608 33.8374 201.733 34.798 202.435 35.2034C202.906 35.4751 203.518 35.4097 203.921 35.0071ZM206.043 58.7781C206.524 58.2973 206.524 57.5177 206.043 57.037L203.921 54.915C203.44 54.4346 202.661 54.4343 202.18 54.915C201.699 55.3956 201.699 56.1753 202.18 56.6561C204.501 58.9769 204.365 58.8635 204.557 58.9745C205.028 59.2462 205.64 59.1807 206.043 58.7781Z" fill="#31A05F"/>
</g>
<defs>
<clipPath id="clip0_1151_10">
<rect width="73.8494" height="73.8494" fill="white" transform="translate(154.735) rotate(30)"/>
</clipPath>
</defs>
</svg>
