<svg width="22" height="22" viewBox="0 0 22 22" fill="none" xmlns="http://www.w3.org/2000/svg">
<g clip-path="url(#clip0_88_0)">
<path d="M18.8244 11.7442H17.123C17.2965 12.219 17.3912 12.7314 17.3912 13.2654V19.6957C17.3912 19.9184 17.3525 20.1321 17.2819 20.3309H20.0947C21.1454 20.3309 22.0002 19.4761 22.0002 18.4254V14.92C22.0003 13.1688 20.5756 11.7442 18.8244 11.7442Z" fill="#838FAF"/>
<path d="M4.60905 13.2655C4.60905 12.7314 4.7038 12.2191 4.87722 11.7443H3.17583C1.42467 11.7443 0 13.1689 0 14.9201V18.4255C0 19.4762 0.854779 20.331 1.9055 20.331H4.71832C4.64781 20.1322 4.60905 19.9185 4.60905 19.6958V13.2655Z" fill="#838FAF"/>
<path d="M12.9448 10.0898H9.05522C7.30407 10.0898 5.87939 11.5145 5.87939 13.2656V19.6959C5.87939 20.0466 6.16376 20.3311 6.51456 20.3311H15.4855C15.8363 20.3311 16.1207 20.0467 16.1207 19.6959V13.2656C16.1207 11.5145 14.696 10.0898 12.9448 10.0898Z" fill="#838FAF"/>
<path d="M11 1.66888C8.894 1.66888 7.18066 3.38222 7.18066 5.48825C7.18066 6.91675 7.9691 8.16435 9.13346 8.81937C9.68574 9.13004 10.3225 9.30758 11 9.30758C11.6775 9.30758 12.3142 9.13004 12.8665 8.81937C14.0309 8.16435 14.8193 6.91671 14.8193 5.48825C14.8193 3.38227 13.106 1.66888 11 1.66888Z" fill="#838FAF"/>
<path d="M4.29336 5.22879C2.71834 5.22879 1.43701 6.51012 1.43701 8.08514C1.43701 9.66017 2.71834 10.9415 4.29336 10.9415C4.69289 10.9415 5.07333 10.8587 5.41893 10.71C6.01646 10.4527 6.50914 9.99734 6.814 9.42693C7.02799 9.02659 7.14972 8.56987 7.14972 8.08514C7.14972 6.51016 5.86839 5.22879 4.29336 5.22879Z" fill="#838FAF"/>
<path d="M17.7069 5.22879C16.1319 5.22879 14.8506 6.51012 14.8506 8.08514C14.8506 8.56992 14.9723 9.02663 15.1863 9.42693C15.4912 9.99739 15.9838 10.4528 16.5814 10.71C16.927 10.8587 17.3074 10.9415 17.7069 10.9415C19.282 10.9415 20.5633 9.66017 20.5633 8.08514C20.5633 6.51012 19.282 5.22879 17.7069 5.22879Z" fill="#838FAF"/>
</g>
<defs>
<clipPath id="clip0_88_0">
<rect width="22" height="22" fill="white"/>
</clipPath>
</defs>
</svg>
